<svg version="1.1" id="el_0QxDObunY" xmlns="http://www.w3.org/2000/svg" xmlns:xlink="http://www.w3.org/1999/xlink" x="0px" y="0px" width="360" height="360" viewBox="0 0 360 360" style="enable-background:new 0 0 360 360;" xml:space="preserve"><style>@-webkit-keyframes kf_el_jVJVHuVhCw_an_WsTMk8hQ3{0%{-webkit-transform: translate(180.3370020389557px, 180.5px) scale(0.02, 0.02) translate(-180.3370020389557px, -180.5px);transform: translate(180.3370020389557px, 180.5px) scale(0.02, 0.02) translate(-180.3370020389557px, -180.5px);}66.67%{-webkit-transform: translate(180.3370020389557px, 180.5px) scale(1, 1) translate(-180.3370020389557px, -180.5px);transform: translate(180.3370020389557px, 180.5px) scale(1, 1) translate(-180.3370020389557px, -180.5px);}100%{-webkit-transform: translate(180.3370020389557px, 180.5px) scale(1, 1) translate(-180.3370020389557px, -180.5px);transform: translate(180.3370020389557px, 180.5px) scale(1, 1) translate(-180.3370020389557px, -180.5px);}}@keyframes kf_el_jVJVHuVhCw_an_WsTMk8hQ3{0%{-webkit-transform: translate(180.3370020389557px, 180.5px) scale(0.02, 0.02) translate(-180.3370020389557px, -180.5px);transform: translate(180.3370020389557px, 180.5px) scale(0.02, 0.02) translate(-180.3370020389557px, -180.5px);}66.67%{-webkit-transform: translate(180.3370020389557px, 180.5px) scale(1, 1) translate(-180.3370020389557px, -180.5px);transform: translate(180.3370020389557px, 180.5px) scale(1, 1) translate(-180.3370020389557px, -180.5px);}100%{-webkit-transform: translate(180.3370020389557px, 180.5px) scale(1, 1) translate(-180.3370020389557px, -180.5px);transform: translate(180.3370020389557px, 180.5px) scale(1, 1) translate(-180.3370020389557px, -180.5px);}}#el_0QxDObunY *{-webkit-animation-duration: 3s;animation-duration: 3s;-webkit-animation-iteration-count: infinite;animation-iteration-count: infinite;-webkit-animation-timing-function: cubic-bezier(0, 0, 1, 1);animation-timing-function: cubic-bezier(0, 0, 1, 1);}#el_AkITo86r1C{fill: none;stroke: #CCCCCC;stroke-width: 2;stroke-miterlimit: 22.9256;}#el_eh0xlgi4yH{fill: none;stroke: #CCCCCC;stroke-width: 2;stroke-miterlimit: 22.9256;}#el_oZ0Y7jhini{fill: none;stroke: #333366;stroke-width: 2;stroke-miterlimit: 22.9256;}#el_reOd1JQlji{fill: none;stroke: #333366;stroke-width: 2;stroke-miterlimit: 22.9256;}#el_2a5ujnEnYd{fill: none;stroke: #333366;stroke-width: 2;stroke-miterlimit: 22.9256;}#el_mZnwaOqZnC{fill: none;stroke: #333366;stroke-width: 2;stroke-miterlimit: 22.9256;}#el_2vN5lAWDm7{fill: none;stroke: #333366;stroke-width: 2;stroke-miterlimit: 22.9256;}#el_Zdu-AI24X3{fill: none;stroke: #333366;stroke-width: 2;stroke-miterlimit: 22.9256;}#el_LP8f5Bx-zx{fill: none;stroke: #333366;stroke-width: 2;stroke-miterlimit: 22.9256;}#el_TQipnflueh{fill: none;stroke: #333366;stroke-width: 2;stroke-miterlimit: 22.9256;}#el__5ougybOIz{fill: none;stroke: #333366;stroke-width: 2;stroke-miterlimit: 22.9256;}#el_joJJzmCjub{fill: none;stroke: #333366;stroke-width: 2;stroke-miterlimit: 22.9256;}#el_GGKV2xIibi{fill: none;stroke: #333366;stroke-width: 2;stroke-miterlimit: 22.9256;}#el_vQgGnRrIlGz{fill: none;stroke: #333366;stroke-width: 2;stroke-miterlimit: 22.9256;}#el_jVJVHuVhCw_an_WsTMk8hQ3{-webkit-animation-fill-mode: backwards;animation-fill-mode: backwards;-webkit-transform: translate(180.3370020389557px, 180.5px) scale(0.02, 0.02) translate(-180.3370020389557px, -180.5px);transform: translate(180.3370020389557px, 180.5px) scale(0.02, 0.02) translate(-180.3370020389557px, -180.5px);-webkit-animation-name: kf_el_jVJVHuVhCw_an_WsTMk8hQ3;animation-name: kf_el_jVJVHuVhCw_an_WsTMk8hQ3;-webkit-animation-timing-function: cubic-bezier(0, 0, 1, 1);animation-timing-function: cubic-bezier(0, 0, 1, 1);}</style>
<g id="el_jVJVHuVhCw_an_WsTMk8hQ3" data-animator-group="true" data-animator-type="2"><g id="el_jVJVHuVhCw">
	<path d="M75.328,4.089l206.574,351.239 M79.43,358&#10;&#9;&#9;l201.5-355 M357.486,286.098L3.188,77.089 M357.486,76.812L4.197,284.474" id="el_AkITo86r1C"/>
	<polygon points="138.384,111.304 219.428,111.452 &#10;&#9;&#9;248.934,140.618 248.934,222.071 219.865,249.847 140.76,249.847 110.574,221.945 110.064,140.143 &#9;" id="el_eh0xlgi4yH"/>
</g></g>
<g id="el_qkOUyJ5HKJ">
	<polygon points="75.328,4.089 280.931,3 &#10;&#9;&#9;357.486,76.812 357.486,286.098 281.901,355.328 79.43,358 4.197,284.474 3.459,77.25 75.328,4.089 &#9;" id="el_oZ0Y7jhini"/>
	<polygon points="87.506,24.795 268.616,24.686 &#10;&#9;&#9;335.331,89.834 335.331,273.043 269.589,334.393 91.482,336.626 26.374,271.438 25.054,89.989 87.506,24.795 &#9;" id="el_reOd1JQlji"/>
	<polygon points="103.911,52.689 253.257,51.734 &#10;&#9;&#9;308.395,105.667 308.395,257.151 253.718,307.406 107.708,308.053 53.225,255.655 51.7,105.71 103.911,52.689 &#9;" id="el_2a5ujnEnYd"/>
	<polygon points="116.447,74.004 241.074,73.189 &#10;&#9;&#9;286.874,118.317 286.874,244.455 241.111,285.973 120.779,285.034 75.205,242.735 73.585,118.621 116.447,74.004 &#9;" id="el_mZnwaOqZnC"/>
	
		<line x1="75.328" y1="4.089" x2="116.447" y2="74.004" id="el_2vN5lAWDm7"/>
	
		<line x1="3.459" y1="77.25" x2="73.585" y2="118.621" id="el_Zdu-AI24X3"/>
	<line x1="280.931" y1="3" x2="241.074" y2="73.189" id="el_LP8f5Bx-zx"/>
	
		<line x1="357.486" y1="76.812" x2="286.874" y2="118.317" id="el_TQipnflueh"/>
	
		<line x1="357.486" y1="286.098" x2="286.874" y2="244.455" id="el__5ougybOIz"/>
	
		<line x1="281.901" y1="355.328" x2="241.111" y2="285.973" id="el_joJJzmCjub"/>
	
		<line x1="79.43" y1="358" x2="120.779" y2="285.034" id="el_GGKV2xIibi"/>
	
		<line x1="4.197" y1="284.474" x2="75.205" y2="242.735" id="el_vQgGnRrIlGz"/>
</g>
</svg>