<svg version="1.1" id="el_cUYxSmbmJ" xmlns="http://www.w3.org/2000/svg" xmlns:xlink="http://www.w3.org/1999/xlink" x="0px" y="0px" width="360" height="360" viewBox="0 0 360 360" style="enable-background:new 0 0 360 360;" xml:space="preserve"><style>@-webkit-keyframes kf_el_XlSEHt5O-3_an_HTOF6PrX8{0%{-webkit-transform: translate(180.29249334335327px, 180.440495967865px) scale(0.02, 0.02) translate(-180.29249334335327px, -180.440495967865px);transform: translate(180.29249334335327px, 180.440495967865px) scale(0.02, 0.02) translate(-180.29249334335327px, -180.440495967865px);}66.67%{-webkit-transform: translate(180.29249334335327px, 180.440495967865px) scale(1, 1) translate(-180.29249334335327px, -180.440495967865px);transform: translate(180.29249334335327px, 180.440495967865px) scale(1, 1) translate(-180.29249334335327px, -180.440495967865px);}100%{-webkit-transform: translate(180.29249334335327px, 180.440495967865px) scale(1, 1) translate(-180.29249334335327px, -180.440495967865px);transform: translate(180.29249334335327px, 180.440495967865px) scale(1, 1) translate(-180.29249334335327px, -180.440495967865px);}}@keyframes kf_el_XlSEHt5O-3_an_HTOF6PrX8{0%{-webkit-transform: translate(180.29249334335327px, 180.440495967865px) scale(0.02, 0.02) translate(-180.29249334335327px, -180.440495967865px);transform: translate(180.29249334335327px, 180.440495967865px) scale(0.02, 0.02) translate(-180.29249334335327px, -180.440495967865px);}66.67%{-webkit-transform: translate(180.29249334335327px, 180.440495967865px) scale(1, 1) translate(-180.29249334335327px, -180.440495967865px);transform: translate(180.29249334335327px, 180.440495967865px) scale(1, 1) translate(-180.29249334335327px, -180.440495967865px);}100%{-webkit-transform: translate(180.29249334335327px, 180.440495967865px) scale(1, 1) translate(-180.29249334335327px, -180.440495967865px);transform: translate(180.29249334335327px, 180.440495967865px) scale(1, 1) translate(-180.29249334335327px, -180.440495967865px);}}#el_cUYxSmbmJ *{-webkit-animation-duration: 3s;animation-duration: 3s;-webkit-animation-iteration-count: infinite;animation-iteration-count: infinite;-webkit-animation-timing-function: cubic-bezier(0, 0, 1, 1);animation-timing-function: cubic-bezier(0, 0, 1, 1);}#el_XlSEHt5O-3{fill: none;stroke: #D1D3D4;stroke-width: 2;stroke-linecap: round;stroke-linejoin: round;stroke-miterlimit: 22.9256;}#el_zb5uUSepry{fill: none;stroke: #333366;stroke-width: 2;stroke-linecap: round;stroke-linejoin: round;stroke-miterlimit: 22.9256;}#el_NJQHX_QFoz{fill-rule: evenodd;clip-rule: evenodd;fill: none;stroke: #333366;stroke-width: 2;stroke-linecap: round;stroke-linejoin: round;stroke-miterlimit: 22.9256;}#el_XlSEHt5O-3_an_HTOF6PrX8{-webkit-animation-fill-mode: backwards;animation-fill-mode: backwards;-webkit-transform: translate(180.29249334335327px, 180.440495967865px) scale(0.02, 0.02) translate(-180.29249334335327px, -180.440495967865px);transform: translate(180.29249334335327px, 180.440495967865px) scale(0.02, 0.02) translate(-180.29249334335327px, -180.440495967865px);-webkit-animation-name: kf_el_XlSEHt5O-3_an_HTOF6PrX8;animation-name: kf_el_XlSEHt5O-3_an_HTOF6PrX8;-webkit-animation-timing-function: cubic-bezier(0, 0, 1, 1);animation-timing-function: cubic-bezier(0, 0, 1, 1);}</style>
<g id="el_XlSEHt5O-3_an_HTOF6PrX8" data-animator-group="true" data-animator-type="2"><path d="&#10;&#9;M250.349,351.683L179.96,242l137.615,75.411l-82.448-136.559L316.709,44.1L180.005,115.54l69.904-104.722 M349.106,106.566&#10;&#9;l-113.979,74.286l114.334,73.791 M355.77,180.853l-175.788-0.03 M317.368,317.232l-137.386-136.41L316.709,44.1 M110.036,350.336&#10;&#9;L179.96,242L41.27,318.922l84.581-138.067L42.925,44.1l137.08,71.439L110.26,11.637 M10.65,105.979l115.201,74.876L9.225,255.474&#10;&#9; M4.815,180.928l175.167-0.106 M41.27,318.922l138.712-138.1L43.51,44.558 M180.043,5.704l-0.123,349.473" id="el_XlSEHt5O-3"/></g>
<path d="&#10;&#9;M179.703,5.999l-60.481,44.986L71.675,180.888l-31.929,65.537l1.524,72.497l78.865-6.978l59.786,43.232l60.064-43.272l77.59,5.507&#10;&#9;l2.887-70.986l-32.118-65.572L240.985,50.985L180.504,5.999 M180.019,76.394l-60.797-25.408l-76.476-6.998l-3.492,72.814&#10;&#9;L4.815,180.928l34.931,65.497 M180.019,76.394l-79.722,27.038l-61.043,13.37l-28.661-11.062 M110.225,11.756l8.997,39.229&#10;&#9; M110.036,350.336l10.099-38.392l-18.327-53.036l-30.133-78.021l-32.421-64.086 M9.225,255.474l30.521-9.049l61.872,12.416&#10;&#9;l78.327,27.73l-59.81,25.373 M180.083,76.416l60.902-25.43l75.724-6.885l4.356,72.726l34.885,64.119l-35.521,65.516 M180.019,76.394&#10;&#9;l79.892,27.038l61.154,13.395l27.966-10.618 M250.18,11.025l-9.194,39.96 M250.349,351.683l-10.363-39.778l18.22-53.139&#10;&#9;l30.139-77.913l32.722-64.026 M349.336,254.717l-28.91-8.277l-62.016,12.254l-78.465,27.878l60.041,25.333" id="el_zb5uUSepry"/>
<path d="&#10;&#9;M127.968,9.022C227.209-1.012,335.7,1.753,351.533,120.702c13.111,98.5,8.24,227.767-122.481,233.116&#10;&#9;c-92.698,3.793-216.653,10.857-222.485-122.236C2.332,134.959-6.951,22.663,127.968,9.022z" id="el_NJQHX_QFoz"/>
</svg>