<svg version="1.1" id="el_wZ_bG_DOd" xmlns="http://www.w3.org/2000/svg" xmlns:xlink="http://www.w3.org/1999/xlink" x="0px" y="0px" width="360" height="360" viewBox="0 0 360 360" style="enable-background:new 0 0 360 360;" xml:space="preserve"><style>@-webkit-keyframes kf_el_gnVZ_Fvjzf_an_1SGZ7Ae3f{0%{-webkit-transform: translate(180.97300720214844px, 180.96749877929688px) scale(0.02, 0.02) translate(-180.97300720214844px, -180.96749877929688px);transform: translate(180.97300720214844px, 180.96749877929688px) scale(0.02, 0.02) translate(-180.97300720214844px, -180.96749877929688px);}66.67%{-webkit-transform: translate(180.97300720214844px, 180.96749877929688px) scale(1, 1) translate(-180.97300720214844px, -180.96749877929688px);transform: translate(180.97300720214844px, 180.96749877929688px) scale(1, 1) translate(-180.97300720214844px, -180.96749877929688px);}100%{-webkit-transform: translate(180.97300720214844px, 180.96749877929688px) scale(1, 1) translate(-180.97300720214844px, -180.96749877929688px);transform: translate(180.97300720214844px, 180.96749877929688px) scale(1, 1) translate(-180.97300720214844px, -180.96749877929688px);}}@keyframes kf_el_gnVZ_Fvjzf_an_1SGZ7Ae3f{0%{-webkit-transform: translate(180.97300720214844px, 180.96749877929688px) scale(0.02, 0.02) translate(-180.97300720214844px, -180.96749877929688px);transform: translate(180.97300720214844px, 180.96749877929688px) scale(0.02, 0.02) translate(-180.97300720214844px, -180.96749877929688px);}66.67%{-webkit-transform: translate(180.97300720214844px, 180.96749877929688px) scale(1, 1) translate(-180.97300720214844px, -180.96749877929688px);transform: translate(180.97300720214844px, 180.96749877929688px) scale(1, 1) translate(-180.97300720214844px, -180.96749877929688px);}100%{-webkit-transform: translate(180.97300720214844px, 180.96749877929688px) scale(1, 1) translate(-180.97300720214844px, -180.96749877929688px);transform: translate(180.97300720214844px, 180.96749877929688px) scale(1, 1) translate(-180.97300720214844px, -180.96749877929688px);}}#el_wZ_bG_DOd *{-webkit-animation-duration: 3s;animation-duration: 3s;-webkit-animation-iteration-count: infinite;animation-iteration-count: infinite;-webkit-animation-timing-function: cubic-bezier(0, 0, 1, 1);animation-timing-function: cubic-bezier(0, 0, 1, 1);}#el_H6JgPkZS4c{fill: none;stroke: #D1D3D4;stroke-width: 2;stroke-miterlimit: 22.9256;}#el_g0APsD4CqN{fill: none;stroke: #D1D3D4;stroke-width: 2;stroke-miterlimit: 22.9256;}#el_-HLIWY-nG_{fill: none;stroke: #D1D3D4;stroke-width: 2;stroke-miterlimit: 22.9256;}#el_239RNcRy72{fill: none;stroke: #D1D3D4;stroke-width: 2;stroke-miterlimit: 22.9256;}#el_I1OFFJnvXB{fill: none;stroke: #D1D3D4;stroke-width: 2;stroke-miterlimit: 22.9256;}#el_lotON6x2tn7{fill: none;stroke: #D1D3D4;stroke-width: 2;stroke-miterlimit: 22.9256;}#el_XETJas45KqK{fill: none;stroke: #D1D3D4;stroke-width: 2;stroke-miterlimit: 22.9256;}#el_Ceg6jqdVZBs{fill: none;stroke: #D1D3D4;stroke-width: 2;stroke-miterlimit: 22.9256;}#el_eKUZJRPRj0O{fill: none;stroke: #D1D3D4;stroke-width: 2;stroke-miterlimit: 22.9256;}#el_QXZnFuYdQpH{fill: none;stroke: #D1D3D4;stroke-width: 2;stroke-miterlimit: 22.9256;}#el_eUjNQXnBAhP{fill: none;stroke: #333366;stroke-width: 2;stroke-miterlimit: 22.9256;}#el_54t2BxjtLms{fill: none;stroke: #333366;stroke-width: 2;stroke-miterlimit: 22.9256;}#el_zVPvfvBSINo{fill: none;stroke: #333366;stroke-width: 2;stroke-miterlimit: 22.9256;}#el_Jfmg8omdsvU{fill: none;stroke: #333366;stroke-width: 2;stroke-miterlimit: 22.9256;}#el_UDiRYxGMzY-{fill: none;stroke: #333366;stroke-width: 2;stroke-miterlimit: 22.9256;}#el_5Pe1BVntYCA{fill: none;stroke: #333366;stroke-width: 2;stroke-miterlimit: 22.9256;}#el_ra-ic54mqrJ{fill: none;stroke: #333366;stroke-width: 2;stroke-miterlimit: 22.9256;}#el_TKIkd7T0SSw{fill: none;stroke: #333366;stroke-width: 2;stroke-miterlimit: 22.9256;}#el_gnVZ_Fvjzf_an_1SGZ7Ae3f{-webkit-animation-fill-mode: backwards;animation-fill-mode: backwards;-webkit-transform: translate(180.97300720214844px, 180.96749877929688px) scale(0.02, 0.02) translate(-180.97300720214844px, -180.96749877929688px);transform: translate(180.97300720214844px, 180.96749877929688px) scale(0.02, 0.02) translate(-180.97300720214844px, -180.96749877929688px);-webkit-animation-name: kf_el_gnVZ_Fvjzf_an_1SGZ7Ae3f;animation-name: kf_el_gnVZ_Fvjzf_an_1SGZ7Ae3f;-webkit-animation-timing-function: cubic-bezier(0, 0, 1, 1);animation-timing-function: cubic-bezier(0, 0, 1, 1);}</style>
<g id="el_gnVZ_Fvjzf_an_1SGZ7Ae3f" data-animator-group="true" data-animator-type="2"><g id="el_gnVZ_Fvjzf">
	<g id="el_GjfU1rKWM0">
		<polygon points="121.665,43.842 240.277,43.263 &#10;&#9;&#9;&#9;256.881,56.26 254.968,303.347 239.997,316.205 120.181,318.672 105.065,305.561 105.654,57.181 &#9;&#9;" id="el_H6JgPkZS4c"/>
	</g>
	<g id="el_AJNrmyzgVN">
		
			<rect x="177.079" y="130.587" width="6.838" height="101.391" id="el_g0APsD4CqN"/>
	</g>
	<g id="el_dY5KizXPxF">
		<g id="el_U6Co4ZHkDT">
			<g id="el_4cDjUcXE8h">
				
					<line x1="133.179" y1="85.406" x2="177.079" y2="135.411" id="el_-HLIWY-nG_"/>
			</g>
			<g id="el_HdD-eeckri">
				
					<line x1="143.341" y1="73.791" x2="177.079" y2="130.587" id="el_239RNcRy72"/>
			</g>
		</g>
		<g id="el_kuTL9OlPy0">
			<g id="el_VW6iaJ9XEn">
				
					<line x1="228.622" y1="85.406" x2="183.917" y2="135.411" id="el_I1OFFJnvXB"/>
			</g>
			<g id="el_BmJV7-1clv">
				
					<line x1="218.461" y1="73.791" x2="183.917" y2="130.587" id="el_lotON6x2tn7"/>
			</g>
		</g>
	</g>
	<g id="el_3MIKzzOFZyY">
		<g id="el_SHNk7b4-_wI">
			<g id="el_2ic9ikeYiox">
				
					<line x1="133.179" y1="276.417" x2="177.079" y2="225.738" id="el_XETJas45KqK"/>
			</g>
			<g id="el_nad7BYql5HL">
				
					<line x1="142.389" y1="288.494" x2="177.079" y2="231.978" id="el_Ceg6jqdVZBs"/>
			</g>
		</g>
		<g id="el_c7wnxUb0j0x">
			<g id="el_w_twoJVuB_w">
				
					<line x1="227.987" y1="275.742" x2="183.917" y2="225.601" id="el_eKUZJRPRj0O"/>
			</g>
			<g id="el_Kd9_AxvIGuK">
				
					<line x1="219.42" y1="287.696" x2="183.975" y2="231.953" id="el_QXZnFuYdQpH"/>
			</g>
		</g>
	</g>
</g></g>
<g id="el_rL50azMzWTi">
	<polygon points="94.102,5.76 266.86,6.065 &#10;&#9;&#9;287.662,24.512 287.662,336.744 268.218,355.297 93.226,355.297 74.321,337.431 74.321,25.051 &#9;" id="el_eUjNQXnBAhP"/>
	<g id="el_H1D9FaKOQMR">
		<g id="el_VxCvZ5efRoX">
			<polyline points="94.102,5.76 143.341,73.791 &#10;&#9;&#9;&#9;&#9;133.179,85.406 74.321,25.051 &#9;&#9;&#9;" id="el_54t2BxjtLms"/>
		</g>
		<g id="el_Jj1LYItnrnf">
			<polyline points="266.86,6.065 218.461,73.791 &#10;&#9;&#9;&#9;&#9;228.622,85.406 287.662,24.512 &#9;&#9;&#9;" id="el_zVPvfvBSINo"/>
		</g>
		<g id="el_S9xVkO1ol5r">
			<g id="el_k4NyvPejR8B">
				<polyline points="92.885,355.76 142.389,288.494 &#10;&#9;&#9;&#9;&#9;&#9;133.179,276.417 74.321,337.431 &#9;&#9;&#9;&#9;" id="el_Jfmg8omdsvU"/>
			</g>
			<g id="el_pSm-sG6zidL">
				<polyline points="268.218,355.297 219.355,287.61 &#10;&#9;&#9;&#9;&#9;&#9;227.987,275.742 287.662,336.744 &#9;&#9;&#9;&#9;" id="el_UDiRYxGMzY-"/>
			</g>
		</g>
	</g>
	<g id="el_3QwU8tb3zQD">
		<polygon points="110.755,28.844 250.279,29.266 &#10;&#9;&#9;&#9;267.735,45.064 266.846,315.42 250.937,331.357 110.417,331.938 94.266,316.756 94.26,45.496 &#9;&#9;" id="el_5Pe1BVntYCA"/>
	</g>
	<g id="el_Q4BszR7tXe4">
		<polygon points="128.398,53.102 233.247,53.102 &#10;&#9;&#9;&#9;246.987,66.465 246.696,294.896 233.397,307.063 128.473,307.404 114.99,295.273 114.558,66.355 &#9;&#9;" id="el_ra-ic54mqrJ"/>
	</g>
	<g id="el_SCQFW2SqqQ1">
		<polygon points="143.341,73.791 218.461,73.791 &#10;&#9;&#9;&#9;228.622,85.406 227.987,275.742 219.42,287.696 142.389,288.494 133.18,276.564 133.179,85.406 &#9;&#9;" id="el_TKIkd7T0SSw"/>
	</g>
</g>
</svg>