<?xml version="1.0" encoding="UTF-8" standalone="no"?>
<!-- Created with Inkscape (http://www.inkscape.org/) -->

<svg
   version="1.1"
   id="svg2"
   xml:space="preserve"
   width="540"
   height="485.14267"
   viewBox="0 0 540 485.14267"
   sodipodi:docname="favicon.ai"
   xmlns:inkscape="http://www.inkscape.org/namespaces/inkscape"
   xmlns:sodipodi="http://sodipodi.sourceforge.net/DTD/sodipodi-0.dtd"
   xmlns="http://www.w3.org/2000/svg"
   xmlns:svg="http://www.w3.org/2000/svg"><defs
     id="defs6"><clipPath
       clipPathUnits="userSpaceOnUse"
       id="clipPath16"><path
         d="M 0,363.857 H 405 V 0 H 0 Z"
         id="path14" /></clipPath></defs><sodipodi:namedview
     id="namedview4"
     pagecolor="#ffffff"
     bordercolor="#666666"
     borderopacity="1.0"
     inkscape:pageshadow="2"
     inkscape:pageopacity="0.0"
     inkscape:pagecheckerboard="0" /><g
     id="g8"
     inkscape:groupmode="layer"
     inkscape:label="favicon"
     transform="matrix(1.3333333,0,0,-1.3333333,0,485.14267)"><g
       id="g10"><g
         id="g12"
         clip-path="url(#clipPath16)"><g
           id="g18"
           transform="translate(398.3801,353.4802)"><path
             d="m 0,0 c -2.868,-5.292 -5.41,-10.056 -8.018,-14.782 -26.277,-47.613 -52.566,-95.219 -78.849,-142.829 -30.674,-55.561 -61.346,-111.124 -92.019,-166.686 -3.387,-6.135 -6.872,-12.219 -10.121,-18.426 -1.167,-2.228 -2.515,-3.163 -5.122,-3.153 -25.074,0.097 -50.148,0.104 -75.222,-0.006 -2.8,-0.012 -4.143,1.168 -5.429,3.402 -19.755,34.304 -39.581,68.568 -59.387,102.843 -18.442,31.916 -36.838,63.858 -55.383,95.713 -1.775,3.049 -1.96,5.293 -0.087,8.429 12.914,21.615 25.635,43.346 38.34,65.084 1.225,2.095 2.471,3.223 5.121,3.22 55.604,-0.076 111.209,-0.054 166.814,-0.068 0.862,0 1.812,0.292 2.774,-0.599 -1.666,-4.431 -4.564,-8.272 -6.946,-12.365 -10.251,-17.612 -20.701,-35.108 -30.93,-52.733 -1.7,-2.929 -3.606,-4.063 -7.082,-4.042 -26.503,0.16 -53.006,0.095 -79.509,0.064 -1.493,-0.001 -3.09,0.446 -4.95,-0.837 24.21,-44.217 48.416,-88.428 72.791,-132.947 2.675,2.459 3.837,5.381 5.321,8.006 31.16,55.142 62.174,110.366 93.403,165.469 12.284,21.674 23.919,43.732 37.112,64.874 8.232,13.192 19.121,23.823 33.174,31.013 6.499,3.325 13.402,4.966 20.523,5.544 C -29.217,5.362 -14.95,3.892 0,0"
             style="fill:#292a69;fill-opacity:1;fill-rule:nonzero;stroke:none"
             id="path20" /></g></g></g></g></svg>
