<svg version="1.1" id="el_s5dRdpk1K" xmlns="http://www.w3.org/2000/svg" xmlns:xlink="http://www.w3.org/1999/xlink" x="0px" y="0px" width="360" height="360" viewBox="0 0 360 360" style="enable-background:new 0 0 360 360;" xml:space="preserve"><style>@-webkit-keyframes kf_el_jTlZbP662C_an_xNbABN4ei{0%{-webkit-transform: translate(179.88050079345703px, 181.67950057983398px) scale(0.02, 0.02) translate(-179.88050079345703px, -181.67950057983398px);transform: translate(179.88050079345703px, 181.67950057983398px) scale(0.02, 0.02) translate(-179.88050079345703px, -181.67950057983398px);}66.67%{-webkit-transform: translate(179.88050079345703px, 181.67950057983398px) scale(1, 1) translate(-179.88050079345703px, -181.67950057983398px);transform: translate(179.88050079345703px, 181.67950057983398px) scale(1, 1) translate(-179.88050079345703px, -181.67950057983398px);}100%{-webkit-transform: translate(179.88050079345703px, 181.67950057983398px) scale(1, 1) translate(-179.88050079345703px, -181.67950057983398px);transform: translate(179.88050079345703px, 181.67950057983398px) scale(1, 1) translate(-179.88050079345703px, -181.67950057983398px);}}@keyframes kf_el_jTlZbP662C_an_xNbABN4ei{0%{-webkit-transform: translate(179.88050079345703px, 181.67950057983398px) scale(0.02, 0.02) translate(-179.88050079345703px, -181.67950057983398px);transform: translate(179.88050079345703px, 181.67950057983398px) scale(0.02, 0.02) translate(-179.88050079345703px, -181.67950057983398px);}66.67%{-webkit-transform: translate(179.88050079345703px, 181.67950057983398px) scale(1, 1) translate(-179.88050079345703px, -181.67950057983398px);transform: translate(179.88050079345703px, 181.67950057983398px) scale(1, 1) translate(-179.88050079345703px, -181.67950057983398px);}100%{-webkit-transform: translate(179.88050079345703px, 181.67950057983398px) scale(1, 1) translate(-179.88050079345703px, -181.67950057983398px);transform: translate(179.88050079345703px, 181.67950057983398px) scale(1, 1) translate(-179.88050079345703px, -181.67950057983398px);}}#el_s5dRdpk1K *{-webkit-animation-duration: 3s;animation-duration: 3s;-webkit-animation-iteration-count: infinite;animation-iteration-count: infinite;-webkit-animation-timing-function: cubic-bezier(0, 0, 1, 1);animation-timing-function: cubic-bezier(0, 0, 1, 1);}#el_-VxPTnjS9t{fill: none;stroke: #D1D3D4;stroke-width: 2;stroke-linecap: round;stroke-linejoin: round;stroke-miterlimit: 22.9256;}#el_P4jtPRfS8X{fill: none;stroke: #D1D3D4;stroke-width: 2;stroke-linecap: round;stroke-linejoin: round;stroke-miterlimit: 22.9256;}#el_OEm4TDY4_U{fill: none;stroke: #D1D3D4;stroke-width: 2;stroke-linecap: round;stroke-linejoin: round;stroke-miterlimit: 22.9256;}#el_4QZbZPpAOS{fill: none;stroke: #D1D3D4;stroke-width: 2;stroke-linecap: round;stroke-linejoin: round;stroke-miterlimit: 22.9256;}#el_QCs6kj2e0a{fill: none;stroke: #D1D3D4;stroke-width: 2;stroke-linecap: round;stroke-linejoin: round;stroke-miterlimit: 22.9256;}#el_ANyhuoRsyO{fill: none;stroke: #D1D3D4;stroke-width: 2;stroke-linecap: round;stroke-linejoin: round;stroke-miterlimit: 22.9256;}#el_-NDnpx7Djc{fill: none;stroke: #D1D3D4;stroke-width: 2;stroke-linecap: round;stroke-linejoin: round;stroke-miterlimit: 22.9256;}#el_aYukIosAIx{fill: none;stroke: #D1D3D4;stroke-width: 2;stroke-linecap: round;stroke-linejoin: round;stroke-miterlimit: 22.9256;}#el_jsVc9l6egL{fill: none;stroke: #D1D3D4;stroke-width: 2;stroke-linecap: round;stroke-linejoin: round;stroke-miterlimit: 22.9256;}#el_ht-GxvGbOQ{fill: none;stroke: #D1D3D4;stroke-width: 2;stroke-linecap: round;stroke-linejoin: round;stroke-miterlimit: 22.9256;}#el_ThSYjTCSki{fill: none;stroke: #D1D3D4;stroke-width: 2;stroke-linecap: round;stroke-linejoin: round;stroke-miterlimit: 22.9256;}#el_MDZDrieP48m{fill: none;stroke: #333366;stroke-width: 2;stroke-linecap: round;stroke-linejoin: round;stroke-miterlimit: 22.9256;}#el_go27-PKI_15{fill: none;stroke: #333366;stroke-width: 2;stroke-linecap: round;stroke-linejoin: round;stroke-miterlimit: 22.9256;}#el_VJw5Na_GGtg{fill: none;stroke: #333366;stroke-width: 2;stroke-linecap: round;stroke-linejoin: round;stroke-miterlimit: 22.9256;}#el_IJ0K1MJjkwd{fill: none;stroke: #333366;stroke-width: 2;stroke-linecap: round;stroke-linejoin: round;stroke-miterlimit: 22.9256;}#el_HQ93mEfFiBE{fill: none;stroke: #333366;stroke-width: 2;stroke-linecap: round;stroke-linejoin: round;stroke-miterlimit: 22.9256;}#el_pNPCTRSZOSN{fill: none;stroke: #333366;stroke-width: 2;stroke-linecap: round;stroke-linejoin: round;stroke-miterlimit: 22.9256;}#el_mNcHN2U3ZVM{fill: none;stroke: #333366;stroke-width: 2;stroke-linecap: round;stroke-linejoin: round;stroke-miterlimit: 22.9256;}#el_mVQvAZXiAU2{fill: none;stroke: #333366;stroke-width: 2;stroke-linecap: round;stroke-linejoin: round;stroke-miterlimit: 22.9256;}#el_21djlJ9DThg{fill: none;stroke: #333366;stroke-width: 2;stroke-linecap: round;stroke-linejoin: round;stroke-miterlimit: 22.9256;}#el_Ga-LTElwwD7{fill: none;stroke: #333366;stroke-width: 2;stroke-linecap: round;stroke-linejoin: round;stroke-miterlimit: 22.9256;}#el_wo7hKm098EA{fill: none;stroke: #333366;stroke-width: 2;stroke-linecap: round;stroke-linejoin: round;stroke-miterlimit: 22.9256;}#el_hvNbEvNWIbb{fill: none;stroke: #333366;stroke-width: 2;stroke-linecap: round;stroke-linejoin: round;stroke-miterlimit: 22.9256;}#el_4uT2Yp4Vt5B{fill: none;stroke: #333366;stroke-width: 2;stroke-linecap: round;stroke-linejoin: round;stroke-miterlimit: 22.9256;}#el_fAoI4uXmAhL{fill: none;stroke: #333366;stroke-width: 2;stroke-linecap: round;stroke-linejoin: round;stroke-miterlimit: 22.9256;}#el_5mhflxTLkWg{fill: none;stroke: #333366;stroke-width: 2;stroke-linecap: round;stroke-linejoin: round;stroke-miterlimit: 10;}#el_jTlZbP662C_an_xNbABN4ei{-webkit-animation-fill-mode: backwards;animation-fill-mode: backwards;-webkit-transform: translate(179.88050079345703px, 181.67950057983398px) scale(0.02, 0.02) translate(-179.88050079345703px, -181.67950057983398px);transform: translate(179.88050079345703px, 181.67950057983398px) scale(0.02, 0.02) translate(-179.88050079345703px, -181.67950057983398px);-webkit-animation-name: kf_el_jTlZbP662C_an_xNbABN4ei;animation-name: kf_el_jTlZbP662C_an_xNbABN4ei;-webkit-animation-timing-function: cubic-bezier(0, 0, 1, 1);animation-timing-function: cubic-bezier(0, 0, 1, 1);}</style>
<g id="el_jTlZbP662C_an_xNbABN4ei" data-animator-group="true" data-animator-type="2"><g id="el_jTlZbP662C">
	<g id="el_RCljK6wr0N">
		
			<polyline points="&#10;&#9;&#9;&#9;179.734,119.278 119.258,15.242 151.698,111.197 5.361,135.44 149.992,154.176 84.59,260.286 163.126,180.813 179.207,349.38 &#9;&#9;&#10;&#9;&#9;&#9;" id="el_-VxPTnjS9t"/>
		
			<line x1="179.734" y1="135.536" x2="51.664" y2="24.355" id="el_P4jtPRfS8X"/>
		
			<line x1="151.698" y1="111.197" x2="12.073" y2="68.053" id="el_OEm4TDY4_U"/>
		
			<line x1="20.104" y1="175.466" x2="149.992" y2="154.176" id="el_4QZbZPpAOS"/>
		
			<polyline points="&#10;&#9;&#9;&#9;48.371,217.861 179.734,135.536 120.788,296.236 &#9;&#9;" id="el_QCs6kj2e0a"/>
	</g>
	<g id="el_Jztun-7_bb">
		
			<polyline points="&#10;&#9;&#9;&#9;179.734,119.278 240.248,13.979 207.417,111.575 354.4,136.316 209.676,154.54 275.659,260.981 196.645,180.813 179.382,348.924 &#10;&#9;&#9;&#9;&#9;&#9;" id="el_ANyhuoRsyO"/>
		
			<line x1="179.734" y1="135.536" x2="308.704" y2="23.901" id="el_-NDnpx7Djc"/>
		
			<line x1="207.417" y1="111.575" x2="351.592" y2="72.663" id="el_aYukIosAIx"/>
		
			<line x1="338.483" y1="175.51" x2="209.786" y2="154.61" id="el_jsVc9l6egL"/>
		
			<polyline points="&#10;&#9;&#9;&#9;309.916,218.164 179.734,135.536 239.932,296.709 &#9;&#9;" id="el_ht-GxvGbOQ"/>
	</g>
	
		<line x1="179.734" y1="43.871" x2="179.734" y2="135.536" id="el_ThSYjTCSki"/>
</g></g>
<g id="el_6AEkR11ThP">
	<g id="el_g21ApEQ9My_">
		
			<polyline points="&#10;&#9;&#9;&#9;179.311,64.268 66.428,96.992 45.892,122.093 20.104,175.466 84.875,194.984 143.182,218.239 180.032,243.036 207.75,266.159 &#10;&#9;&#9;&#9;239.667,296.236 &#9;&#9;" id="el_MDZDrieP48m"/>
		<g id="el_JyTKex4mKUz">
			
				<polyline points="&#10;&#9;&#9;&#9;&#9;179.734,95.91 120.944,81.188 67.155,62.355 12.073,68.053 46.083,121.882 85.093,145.046 143.182,218.239 151.805,265.708 &#10;&#9;&#9;&#9;&#9;179.279,349.581 &#9;&#9;&#9;" id="el_go27-PKI_15"/>
			
				<polyline points="&#10;&#9;&#9;&#9;&#9;179.437,64.371 119.297,15.36 67.241,62.309 66.428,96.992 85.174,145.253 84.59,260.286 151.805,265.708 &#9;&#9;&#9;" id="el_VJw5Na_GGtg"/>
			
				<line x1="45.928" y1="121.832" x2="5.311" y2="135.383" id="el_IJ0K1MJjkwd"/>
			
				<line x1="67.155" y1="62.355" x2="51.749" y2="24.355" id="el_HQ93mEfFiBE"/>
			
				<line x1="48.371" y1="217.861" x2="84.875" y2="194.984" id="el_pNPCTRSZOSN"/>
			
				<line x1="120.788" y1="296.236" x2="152.071" y2="265.445" id="el_mNcHN2U3ZVM"/>
		</g>
	</g>
	<g id="el__DT3tKiQ7N_">
		
			<polyline points="&#10;&#9;&#9;&#9;179.437,64.371 293.045,96.906 312.279,122.093 338.483,175.51 275.359,196.23 216.911,218.044 180.032,243.036 152.105,265.766 &#10;&#9;&#9;&#9;&#9;&#9;" id="el_mVQvAZXiAU2"/>
		<g id="el_tzDTX4Y66Rt">
			
				<polyline points="&#10;&#9;&#9;&#9;&#9;179.734,95.91 238.541,81.297 292.836,61.957 349.517,68.011 312.264,122.093 274.9,145.497 216.911,218.044 207.75,266.159 &#10;&#9;&#9;&#9;&#9;179.311,349.404 &#9;&#9;&#9;" id="el_21djlJ9DThg"/>
			
				<polyline points="&#10;&#9;&#9;&#9;&#9;179.311,64.268 240.189,14.116 292.631,62.013 292.932,96.874 274.9,145.497 275.944,260.96 207.86,266.125 &#9;&#9;&#9;" id="el_Ga-LTElwwD7"/>
			
				<line x1="312.279" y1="122.093" x2="354.362" y2="135.926" id="el_wo7hKm098EA"/>
			
				<line x1="292.714" y1="61.956" x2="308.473" y2="24.104" id="el_hvNbEvNWIbb"/>
			
				<line x1="310.968" y1="219.052" x2="275.359" y2="196.23" id="el_4uT2Yp4Vt5B"/>
		</g>
	</g>
	
		<line x1="179.138" y1="43.871" x2="179.734" y2="95.91" id="el_fAoI4uXmAhL"/>
	<path d="&#10;&#9;&#9;M179.126,44.026c95.133-79.633,214.561,1.337,168.792,111.451c-41.351,99.482-156.5,180.44-167.931,193.256&#10;&#9;&#9;c-1.178,1.317-0.418,1.084-1.535-0.316c-10.024-12.574-103.598-82.11-153.935-164.908C-44.013,70.779,63.021-43.86,179.126,44.026z&#10;&#9;&#9;" id="el_5mhflxTLkWg"/>
</g>
</svg>