<?xml version="1.0" encoding="UTF-8" standalone="no"?>
<!-- Created with Inkscape (http://www.inkscape.org/) -->

<svg
   version="1.1"
   id="svg2"
   xml:space="preserve"
   width="2460"
   height="470.66666"
   viewBox="0 0 2460 470.66666"
   sodipodi:docname="logo.ai"
   xmlns:inkscape="http://www.inkscape.org/namespaces/inkscape"
   xmlns:sodipodi="http://sodipodi.sourceforge.net/DTD/sodipodi-0.dtd"
   xmlns="http://www.w3.org/2000/svg"
   xmlns:svg="http://www.w3.org/2000/svg"><defs
     id="defs6"><clipPath
       clipPathUnits="userSpaceOnUse"
       id="clipPath16"><path
         d="M 0,353 H 1845 V 0 H 0 Z"
         id="path14" /></clipPath></defs><sodipodi:namedview
     id="namedview4"
     pagecolor="#ffffff"
     bordercolor="#666666"
     borderopacity="1.0"
     inkscape:pageshadow="2"
     inkscape:pageopacity="0.0"
     inkscape:pagecheckerboard="0" /><g
     id="g8"
     inkscape:groupmode="layer"
     inkscape:label="logo"
     transform="matrix(1.3333333,0,0,-1.3333333,0,470.66667)"><g
       id="g10"><g
         id="g12"
         clip-path="url(#clipPath16)"><g
           id="g18"
           transform="translate(494.905,347.1501)"><path
             d="m 0,0 c -2.868,-5.292 -5.41,-10.056 -8.018,-14.782 -26.277,-47.613 -52.566,-95.219 -78.849,-142.829 -30.674,-55.561 -61.346,-111.124 -92.019,-166.686 -3.387,-6.135 -6.872,-12.219 -10.121,-18.426 -1.167,-2.228 -2.515,-3.163 -5.122,-3.153 -25.074,0.097 -50.148,0.104 -75.222,-0.006 -2.8,-0.012 -4.143,1.168 -5.429,3.402 -19.755,34.304 -39.581,68.568 -59.387,102.843 -18.442,31.916 -36.838,63.858 -55.383,95.713 -1.775,3.049 -1.96,5.293 -0.087,8.429 12.914,21.615 25.635,43.346 38.34,65.084 1.225,2.095 2.471,3.223 5.121,3.22 55.604,-0.076 111.209,-0.054 166.814,-0.068 0.862,0 1.812,0.292 2.774,-0.599 -1.666,-4.431 -4.564,-8.272 -6.946,-12.365 -10.251,-17.612 -20.701,-35.108 -30.93,-52.733 -1.7,-2.929 -3.606,-4.063 -7.082,-4.042 -26.503,0.16 -53.006,0.095 -79.509,0.064 -1.493,-0.001 -3.09,0.446 -4.95,-0.837 24.21,-44.217 48.416,-88.428 72.791,-132.947 2.675,2.459 3.837,5.381 5.321,8.006 31.16,55.142 62.174,110.366 93.403,165.469 12.284,21.674 23.919,43.732 37.112,64.874 8.232,13.192 19.121,23.823 33.174,31.013 6.499,3.325 13.402,4.966 20.523,5.544 C -29.217,5.362 -14.95,3.892 0,0"
             style="fill:#292a69;fill-opacity:1;fill-rule:nonzero;stroke:none"
             id="path20" /></g><g
           id="g22"
           transform="translate(1743.0273,120.4903)"><path
             d="m 0,0 h -1138.317 c 0,0.402 -10e-4,0.803 -10e-4,1.205 H 0.056 C 0.037,0.803 0.019,0.402 0,0"
             style="fill:#292a69;fill-opacity:1;fill-rule:nonzero;stroke:none"
             id="path24" /></g><g
           id="g26"
           transform="translate(1091.321,148.3108)"><path
             d="m 0,0 c -22.929,43.284 -45.077,85.094 -67.826,128.039 -2.262,-3.977 -1.599,-6.983 -1.604,-9.775 -0.055,-32.961 0.09,-65.924 -0.134,-98.884 -0.049,-7.214 0.142,-13.79 7.597,-18.622 h -53.527 c 12.474,6.65 8.978,17.14 9.012,26.442 0.169,46.42 -0.019,92.842 0.174,139.262 0.031,7.645 0.303,14.855 -7.948,19.792 h 71.159 c -10.002,-8.212 -6.055,-15.491 -1.836,-23.4 14.716,-27.589 28.998,-55.41 43.501,-83.112 1.235,-2.358 1.929,-5.156 4.466,-6.663 2.742,0.369 3.262,2.781 4.255,4.62 16.153,29.938 32.227,59.919 48.41,89.84 3.737,6.91 6.093,13.331 -3.172,18.781 h 68.982 c -9.654,-5.811 -8.915,-14.856 -8.917,-23.592 -0.007,-46.971 -0.045,-93.941 0.04,-140.912 0.014,-7.669 -0.613,-15.838 8.298,-21.031 H 66.014 c 8.68,5.018 7.36,13.04 7.349,20.673 -0.047,32.138 0.012,64.276 -0.074,96.413 -0.008,2.827 1.013,5.919 -1.94,9.726 C 47.651,85.215 24.304,43.463 0,0"
             style="fill:#292a69;fill-opacity:1;fill-rule:nonzero;stroke:none"
             id="path28" /></g><g
           id="g30"
           transform="translate(1407.177,220.9854)"><path
             d="M 0,0 C -10.449,23.117 -20.228,44.752 -31.044,68.683 -42.106,44.514 -52.028,22.834 -62.479,0 Z m -79.59,-72.26 h -61.126 c 11.404,5.945 14.244,17.373 18.969,27.269 20.911,43.808 41.591,87.727 62.388,131.59 4.464,9.415 10.192,18.887 -2.812,27.213 H 4.535 C -10.915,104.183 -3.15,94.649 1.387,85.347 22.911,41.218 44.552,-2.854 66.094,-46.974 c 4.525,-9.265 8.618,-18.788 18.015,-25.23 H 18.54 c 10.46,9.852 10.567,10.573 4.283,23.502 -2.758,5.676 -5.745,11.259 -8.147,17.082 -2.038,4.937 -4.959,7.04 -10.562,6.971 -23.634,-0.291 -47.276,-0.279 -70.911,-0.006 -5.548,0.063 -8.595,-1.965 -10.652,-6.909 -2.526,-6.07 -5.584,-11.919 -8.389,-17.874 -5.985,-12.704 -5.792,-13.558 6.248,-22.822"
             style="fill:#292a69;fill-opacity:1;fill-rule:nonzero;stroke:none"
             id="path32" /></g><g
           id="g34"
           transform="translate(722.9434,148.7313)"><path
             d="m 0,0 h -64.367 c 14.141,7.191 9.147,15.738 5.214,24.298 -21.759,47.364 -43.434,94.767 -65.22,142.118 -3.276,7.12 -5.987,14.825 -14.252,19.291 h 62.81 c -0.202,-0.825 -0.163,-1.996 -0.586,-2.196 -8.7,-4.126 -8.039,-10.431 -4.668,-17.848 10.096,-22.217 19.979,-44.53 29.952,-66.802 6.582,-14.699 13.177,-29.392 19.87,-44.318 4.131,1.534 4.5,4.85 5.624,7.346 14.747,32.754 29.329,65.583 44.038,98.355 6.523,14.534 6.537,15.018 -4.144,25.64 H 75.915 C 67.477,180.974 64.693,172.83 61.196,165.222 39.316,117.611 17.418,70.007 -4.43,22.381 -9.882,10.495 -9.567,9.033 0,0"
             style="fill:#292a69;fill-opacity:1;fill-rule:nonzero;stroke:none"
             id="path36" /></g><g
           id="g38"
           transform="translate(1543.425,333.9861)"><path
             d="m 0,0 c 19.681,2.051 38.252,1.675 57.733,0.502 -12.067,-6.706 -8.374,-17.586 -8.419,-27.131 -0.194,-40.368 0.061,-80.738 -0.22,-121.105 -0.047,-6.809 1.954,-8.949 8.816,-8.886 33.241,0.304 66.486,0.251 99.729,0.049 7.439,-0.045 14.303,0.205 19.487,7.6 v -45.386 c -5.533,10.499 -15.252,8.328 -24.084,8.338 -47.255,0.054 -94.51,0.006 -141.765,0.072 -3.169,0.004 -6.545,-0.869 -10.49,1.764 10.52,5.371 8.188,14.816 8.193,23.517 0.026,46.41 0.043,92.821 -0.016,139.231 C 8.954,-13.44 11.304,-4.434 0,0"
             style="fill:#292a69;fill-opacity:1;fill-rule:nonzero;stroke:none"
             id="path40" /></g><g
           id="g42"
           transform="translate(907.6403,334.6414)"><path
             d="m 0,0 c -10.304,-5.001 -7.825,-14.047 -7.835,-22.023 -0.061,-48.58 0.05,-97.161 -0.121,-145.741 -0.025,-6.949 0.344,-13.195 7.418,-17.838 H -57.38 c 12.59,7.05 9.171,17.786 9.207,27.378 0.169,45.287 0.087,90.574 0.061,135.861 -0.004,8.07 2.151,16.995 -9.747,20.719 0.622,0.548 1.243,1.096 1.865,1.644 z"
             style="fill:#292a69;fill-opacity:1;fill-rule:nonzero;stroke:none"
             id="path44" /></g><g
           id="g46"
           transform="translate(1101.8364,10.1796)"><path
             d="m 0,0 h -12.113 c 2.303,19.716 0.405,39.379 1.091,59.004 -0.512,0.129 -1.024,0.259 -1.535,0.389 -9.737,-19.399 -19.474,-38.798 -29.672,-59.116 -10.111,20.248 -19.814,39.678 -29.516,59.108 -0.574,-0.099 -1.147,-0.198 -1.721,-0.296 0.32,-19.577 -0.723,-39.174 0.647,-58.975 h -10.232 c 2.799,3.134 3.101,6.675 3.093,10.333 -0.034,17.211 -0.02,34.423 -0.016,51.634 0,3.563 -0.129,7.086 -2.972,10.337 h 16.079 c -1.054,-2.474 -0.971,-4.794 0.237,-7.161 7.812,-15.302 15.52,-30.656 23.254,-45.997 0.419,-0.832 0.711,-1.754 2.056,-1.923 2.224,1.476 2.532,4.26 3.661,6.485 6.758,13.324 13.353,26.73 20.089,40.065 1.364,2.699 2.801,5.25 0.438,8.542 H -0.735 C -3.908,68.558 -3.499,64.188 -3.497,59.878 -3.488,43.415 -3.502,26.952 -3.486,10.489 -3.483,6.961 -3.531,3.394 0,0"
             style="fill:#292a69;fill-opacity:1;fill-rule:nonzero;stroke:none"
             id="path48" /></g><g
           id="g50"
           transform="translate(1389.0812,16.6113)"><path
             d="m 0,0 c 11.822,0 23.191,-0.377 34.517,0.159 5.647,0.268 10.846,2.992 14.349,7.818 8.324,11.465 8.535,24.047 4.022,36.79 C 48.938,55.918 39.862,59.944 28.642,60.24 19.17,60.49 9.698,60.943 0,59.916 Z m -11.413,-6.383 c 2.945,2.433 2.856,5.157 2.851,7.912 -0.03,18.889 -0.011,37.779 -0.024,56.668 -10e-4,2.592 0.422,5.308 -3.34,8.099 C 5.81,65.995 22.083,67.562 38.132,65.406 53.22,63.379 62.796,50.283 63.732,33.041 64.1,26.245 63.242,19.609 60.747,13.257 56.043,1.285 47.021,-5.593 34.397,-6.211 19.487,-6.942 4.513,-6.383 -11.413,-6.383"
             style="fill:#292a69;fill-opacity:1;fill-rule:nonzero;stroke:none"
             id="path52" /></g><g
           id="g54"
           transform="translate(1182.7327,77.4833)"><path
             d="m 0,0 c -1.87,0 -3.761,0.179 -5.608,-0.029 -12.797,-1.436 -23.095,-7.032 -27.784,-19.483 -4.464,-11.853 -2.896,-23.332 6.273,-32.734 8.455,-8.67 19.381,-10.762 30.971,-9.953 22.862,1.596 36.41,20.511 29.79,41.366 C 29.493,-7.764 16.933,0.038 0,0 m 1.266,-68.602 c -16.913,-0.25 -30.172,4.188 -38.867,17.49 -15.4,23.558 -0.152,54.409 28.099,57.232 C -0.566,7.014 8.343,7.165 17.052,4.291 33.853,-1.252 43.963,-15.646 43.255,-33.131 42.596,-49.402 30.208,-63.599 13.522,-67.348 8.927,-68.38 4.312,-68.739 1.266,-68.602"
             style="fill:#292a69;fill-opacity:1;fill-rule:nonzero;stroke:none"
             id="path56" /></g><g
           id="g58"
           transform="translate(1550.8994,66.4373)"><path
             d="m 0,0 c -0.432,3.205 -2.008,4.856 -4.405,5.955 -12.15,5.573 -24.611,7.208 -37.522,2.914 -3.435,-1.142 -6.468,-2.953 -8.693,-5.872 -4.434,-5.818 -2.818,-12.814 3.852,-15.842 4.652,-2.112 9.702,-2.565 14.782,-2.517 8.411,0.079 16.79,-0.447 25.063,-1.944 7.188,-1.301 12.667,-5.265 14.183,-12.59 1.694,-8.187 -0.298,-15.583 -7.427,-20.931 -5.083,-3.812 -10.9,-5.89 -17.084,-6.464 -13.048,-1.21 -25.744,0.079 -37.441,6.724 -2.706,1.538 -5.433,3.209 -9.707,1.817 2.532,4.278 4.58,7.738 7.38,12.467 0.236,-3.748 1.597,-5.469 3.702,-6.742 11.988,-7.253 24.748,-10.282 38.601,-6.987 2.502,0.595 4.969,1.668 7.216,2.938 6.017,3.401 8.856,9.014 7.531,14.297 -1.206,4.808 -6.492,8.335 -12.955,9.061 -9.837,1.106 -19.785,0.465 -29.59,2.095 -10.542,1.751 -17.085,7.101 -17.901,14.934 -1.045,10.036 3.776,17.721 14.316,21.327 14.893,5.096 29.701,4.153 44.179,-2.003 C 0.579,11.574 3.004,10.019 6.848,12.376 4.164,7.526 2.082,3.763 0,0"
             style="fill:#292a69;fill-opacity:1;fill-rule:nonzero;stroke:none"
             id="path60" /></g><g
           id="g62"
           transform="translate(760.0692,47.0293)"><path
             d="m 0,0 c 0,-8.585 0.146,-17.174 -0.066,-25.753 -0.097,-3.919 1.315,-5.217 5.197,-5.111 8.769,0.239 17.553,-0.051 26.323,0.164 10.768,0.264 18.381,5.389 22.397,15.502 2.452,6.172 3.343,12.611 2.579,19.196 -1.668,14.38 -9.781,23.95 -21.242,25.288 C 25.146,30.458 15.062,29.93 4.994,30.093 1.029,30.157 -0.14,28.364 -0.057,24.634 0.126,16.426 0,8.212 0,0 m -10.368,-36.814 c 3.434,3.415 3.003,7.149 3,10.82 -0.016,17.381 -0.023,34.763 0.006,52.144 0.005,3.18 0.141,6.349 -3.277,9.692 17.285,-0.209 33.345,1.009 49.275,-0.763 10.546,-1.174 18.039,-7.715 22.232,-17.577 4.574,-10.76 4.678,-21.875 1.246,-32.844 -4.118,-13.157 -13.604,-20.646 -27.246,-21.31 -14.715,-0.716 -29.492,-0.162 -45.236,-0.162"
             style="fill:#292a69;fill-opacity:1;fill-rule:nonzero;stroke:none"
             id="path64" /></g><g
           id="g66"
           transform="translate(1327.66,82.6743)"><path
             d="M 0,0 C 0.611,0.03 2.08,0.136 3.551,0.165 5.39,0.202 7.231,0.174 10.285,0.174 6.794,-3.37 7.296,-6.938 7.293,-10.406 7.282,-27.991 7.287,-45.577 7.287,-63.163 c 0,-3.139 -0.38,-6.368 3.366,-9.203 H -4.459 c 1.558,2.593 1.443,4.912 -0.592,7.271 -15.643,18.126 -31.185,36.339 -46.778,54.509 -0.342,0.399 -0.92,0.597 -2.715,1.717 0.637,-21.635 -1.137,-42.405 1.159,-63.437 h -8.193 c 1.029,23.992 0.872,47.971 0.047,72.221 H -45.5 c -0.818,-2.37 -1.469,-4.459 0.405,-6.644 14.366,-16.754 28.603,-33.618 42.897,-50.433 0.339,-0.398 0.878,-0.626 2.879,-2.006 C 0.569,-38.779 1.531,-19.547 0,0"
             style="fill:#292a69;fill-opacity:1;fill-rule:nonzero;stroke:none"
             id="path68" /></g><g
           id="g70"
           transform="translate(964.0148,37.0495)"><path
             d="M 0,0 C -5.651,12.546 -10.944,24.297 -16.964,37.662 -22.964,24.292 -28.281,12.446 -33.867,0 Z M -40.755,-26.795 H -55.01 c 7.295,11.367 11.979,23.858 17.462,35.935 5.353,11.789 11.936,23.162 15.683,36.438 h 12.378 c -1.593,-2.964 -0.57,-5.403 0.584,-7.916 8.561,-18.64 17.069,-37.305 25.566,-55.974 1.385,-3.045 2.746,-6.073 6.885,-8.36 H 9.277 c 1.601,7.55 -3.583,12.955 -6.379,19.105 -0.674,1.482 -2.718,0.89 -4.161,0.896 -10.466,0.039 -20.933,-0.076 -31.396,0.083 -3.054,0.046 -4.858,-0.936 -5.99,-3.79 -1.305,-3.288 -3.01,-6.416 -4.437,-9.659 -0.968,-2.203 -2.388,-4.525 2.331,-6.758"
             style="fill:#292a69;fill-opacity:1;fill-rule:nonzero;stroke:none"
             id="path72" /></g><g
           id="g74"
           transform="translate(875.1465,82.6001)"><path
             d="m 0,0 c -3.346,-3.906 -2.775,-8.04 -2.778,-12.073 -0.012,-16.44 -0.013,-32.88 10e-4,-49.321 0.003,-3.684 -0.51,-7.482 3.111,-10.929 h -12.805 c 2.856,3.217 2.315,6.853 2.316,10.395 0.007,17.935 -0.013,35.869 0.016,53.804 0.005,2.782 0.117,5.541 -2.671,8.124 z"
             style="fill:#292a69;fill-opacity:1;fill-rule:nonzero;stroke:none"
             id="path76" /></g></g></g></g></svg>
