<svg version="1.1" xmlns="http://www.w3.org/2000/svg" xmlns:xlink="http://www.w3.org/1999/xlink" x="0px" y="0px" width="360" height="360" viewBox="0 0 360 360" style="enable-background:new 0 0 360 360;" xml:space="preserve" id="el_pg0BR5aja"><style>@-webkit-keyframes kf_el_3-WnfOHj1Z_an_TV1mk-Wgx{0%{-webkit-transform: translate(180.4330062866211px, 179.13100171089172px) scale(0.02, 0.02) translate(-180.4330062866211px, -179.13100171089172px);transform: translate(180.4330062866211px, 179.13100171089172px) scale(0.02, 0.02) translate(-180.4330062866211px, -179.13100171089172px);}66.67%{-webkit-transform: translate(180.4330062866211px, 179.13100171089172px) scale(1, 1) translate(-180.4330062866211px, -179.13100171089172px);transform: translate(180.4330062866211px, 179.13100171089172px) scale(1, 1) translate(-180.4330062866211px, -179.13100171089172px);}100%{-webkit-transform: translate(180.4330062866211px, 179.13100171089172px) scale(1, 1) translate(-180.4330062866211px, -179.13100171089172px);transform: translate(180.4330062866211px, 179.13100171089172px) scale(1, 1) translate(-180.4330062866211px, -179.13100171089172px);}}@keyframes kf_el_3-WnfOHj1Z_an_TV1mk-Wgx{0%{-webkit-transform: translate(180.4330062866211px, 179.13100171089172px) scale(0.02, 0.02) translate(-180.4330062866211px, -179.13100171089172px);transform: translate(180.4330062866211px, 179.13100171089172px) scale(0.02, 0.02) translate(-180.4330062866211px, -179.13100171089172px);}66.67%{-webkit-transform: translate(180.4330062866211px, 179.13100171089172px) scale(1, 1) translate(-180.4330062866211px, -179.13100171089172px);transform: translate(180.4330062866211px, 179.13100171089172px) scale(1, 1) translate(-180.4330062866211px, -179.13100171089172px);}100%{-webkit-transform: translate(180.4330062866211px, 179.13100171089172px) scale(1, 1) translate(-180.4330062866211px, -179.13100171089172px);transform: translate(180.4330062866211px, 179.13100171089172px) scale(1, 1) translate(-180.4330062866211px, -179.13100171089172px);}}#el_pg0BR5aja *{-webkit-animation-duration: 3s;animation-duration: 3s;-webkit-animation-iteration-count: infinite;animation-iteration-count: infinite;-webkit-animation-timing-function: cubic-bezier(0, 0, 1, 1);animation-timing-function: cubic-bezier(0, 0, 1, 1);}#el_4kVXrQqfIZ{fill: none;stroke: #D1D3D4;stroke-width: 2;stroke-miterlimit: 22.9256;}#el_CuRwPqljuy{fill: none;stroke: #D1D3D4;stroke-width: 2;stroke-miterlimit: 22.9256;}#el_ctRMOcP4UU{fill: none;stroke: #D1D3D4;stroke-width: 2;stroke-miterlimit: 22.9256;}#el_bfXA_iuU7t{fill: none;stroke: #D1D3D4;stroke-width: 2;stroke-miterlimit: 22.9256;}#el_7bayfMaEcN{fill: none;stroke: #D1D3D4;stroke-width: 2;stroke-miterlimit: 22.9256;}#el_AK2nYG6OBC{fill: none;stroke: #D1D3D4;stroke-width: 2;stroke-miterlimit: 22.9256;}#el_Vp1XecHp_G{fill: none;stroke: #D1D3D4;stroke-width: 2;stroke-miterlimit: 22.9256;}#el_Sykm-lqmTrC{fill: none;stroke: #D1D3D4;stroke-width: 2;stroke-miterlimit: 22.9256;}#el_qkNVLfN_yNa{fill: none;stroke: #D1D3D4;stroke-width: 2;stroke-miterlimit: 22.9256;}#el_ZN9ZBYgZbB8{fill: none;stroke: #D1D3D4;stroke-width: 2;stroke-miterlimit: 22.9256;}#el_DzQIwx5KY0k{fill: none;stroke: #CCCCCC;stroke-width: 2;stroke-miterlimit: 22.9256;}#el__qhNppDwqpz{fill: none;stroke: #333366;stroke-width: 2;stroke-miterlimit: 22.9256;}#el_kCWxkWo--Pg{fill: none;stroke: #333366;stroke-width: 2;stroke-miterlimit: 22.9256;}#el_WHHo4br6dn6{fill: none;stroke: #333366;stroke-width: 2;stroke-miterlimit: 22.9256;}#el_Zgyffg1MdoL{fill: none;stroke: #333366;stroke-width: 2;stroke-miterlimit: 22.9256;}#el_EMM_ZWTfsTT{fill: none;stroke: #333366;stroke-width: 2;stroke-miterlimit: 22.9256;}#el_uQ4dNcHdkFz{fill: none;stroke: #333366;stroke-width: 2;stroke-miterlimit: 22.9256;}#el_gEE6B3luPu8{fill: none;stroke: #333366;stroke-width: 2;stroke-miterlimit: 22.9256;}#el_Noa-eTVXT5l{fill: none;stroke: #333366;stroke-width: 2;stroke-miterlimit: 22.9256;}#el_CCQiD6YxGMP{fill: none;stroke: #333366;stroke-width: 2;stroke-miterlimit: 22.9256;}#el_7gbojLkc9Wt{fill: none;stroke: #333366;stroke-width: 2;stroke-miterlimit: 22.9256;}#el_jtG1jvllelp{fill: none;stroke: #333366;stroke-width: 2;stroke-miterlimit: 22.9256;}#el_CDmE25vzeBg{fill: none;stroke: #333366;stroke-width: 2;stroke-miterlimit: 22.9256;}#el_QjHdzDJIIps{fill: none;stroke: #333366;stroke-width: 2;stroke-miterlimit: 22.9256;}#el_vGkzhk54cG4{fill: none;stroke: #333366;stroke-width: 2;stroke-miterlimit: 22.9256;}#el_hsFd8UGw--v{fill: none;stroke: #333366;stroke-width: 2;stroke-miterlimit: 22.9256;}#el_ne3MLnHpvGc{fill: none;stroke: #333366;stroke-width: 2;stroke-miterlimit: 22.9256;}#el_wLK0_0i1qih{fill: none;stroke: #333366;stroke-width: 2;stroke-miterlimit: 22.9256;}#el_gZn4oeEEp-O{fill: none;stroke: #333366;stroke-width: 2;stroke-miterlimit: 22.9256;}#el_fM2D9CNWGfo{fill: none;stroke: #333366;stroke-width: 2;stroke-miterlimit: 22.9256;}#el_FyGDtj8WYOt{fill: none;stroke: #333366;stroke-width: 2;stroke-miterlimit: 22.9256;}#el_TmFgSJmcOlV{fill: none;stroke: #333366;stroke-width: 2;stroke-miterlimit: 22.9256;}#el_K4qAv1vXMR6{fill: none;stroke: #333366;stroke-width: 2;stroke-miterlimit: 22.9256;}#el_Fys7hjK2hjA{fill: none;stroke: #333366;stroke-width: 2;stroke-miterlimit: 22.9256;}#el_xlI1ny6TbAv{fill: none;stroke: #333366;stroke-width: 2;stroke-miterlimit: 22.9256;}#el_8jRnEnGM5Db{fill: none;stroke: #333366;stroke-width: 2;stroke-miterlimit: 22.9256;}#el_GmYxVBOXyFx{fill: none;stroke: #333366;stroke-width: 2;stroke-miterlimit: 22.9256;}#el_bCdrIkEyOpt{fill: none;stroke: #333366;stroke-width: 2;stroke-miterlimit: 22.9256;}#el_qmFYAeiC1u7{fill: none;stroke: #333366;stroke-width: 2;stroke-miterlimit: 22.9256;}#el_HOU60sp6lxb{fill: none;stroke: #333366;stroke-width: 2;stroke-miterlimit: 22.9256;}#el_jWKMdBSyqDw{fill: none;stroke: #333366;stroke-width: 2;stroke-miterlimit: 22.9256;}#el_B4owYAvlH3c{fill: none;stroke: #333366;stroke-width: 2;stroke-miterlimit: 22.9256;}#el_p4Jp5YQyp86{fill: none;stroke: #333366;stroke-width: 2;stroke-miterlimit: 22.9256;}#el_3izVtddGAZw{fill: none;stroke: #333366;stroke-width: 2;stroke-miterlimit: 22.9256;}#el_BopR0wNIOgl{fill: none;stroke: #333366;stroke-width: 2;stroke-miterlimit: 22.9256;}#el_csYNns5Zu6f{fill: none;stroke: #333366;stroke-width: 2;stroke-miterlimit: 22.9256;}#el_1Kr00jyBDiy{fill: none;stroke: #333366;stroke-width: 2;stroke-miterlimit: 22.9256;}#el_lFENu1XM9p-{fill: none;stroke: #333366;stroke-width: 2;stroke-miterlimit: 22.9256;}#el_KmgexdiBkzP{fill: none;stroke: #333366;stroke-width: 2;stroke-miterlimit: 22.9256;}#el_mMKCJ5YdX{fill: none;stroke: #333366;stroke-width: 2;stroke-miterlimit: 22.9256;}#el_3-WnfOHj1Z_an_TV1mk-Wgx{-webkit-animation-fill-mode: backwards;animation-fill-mode: backwards;-webkit-transform: translate(180.4330062866211px, 179.13100171089172px) scale(0.02, 0.02) translate(-180.4330062866211px, -179.13100171089172px);transform: translate(180.4330062866211px, 179.13100171089172px) scale(0.02, 0.02) translate(-180.4330062866211px, -179.13100171089172px);-webkit-animation-name: kf_el_3-WnfOHj1Z_an_TV1mk-Wgx;animation-name: kf_el_3-WnfOHj1Z_an_TV1mk-Wgx;-webkit-animation-timing-function: cubic-bezier(0, 0, 1, 1);animation-timing-function: cubic-bezier(0, 0, 1, 1);}</style>
<g id="el_3-WnfOHj1Z_an_TV1mk-Wgx" data-animator-group="true" data-animator-type="2"><g id="el_3-WnfOHj1Z">
	<g id="el_aRJurID1it">
		<polyline points="85.278,180.153 133.811,232.58 &#10;&#9;&#9;&#9;152.879,253.058 180,276.875 218.151,327.369 &#9;&#9;" id="el_4kVXrQqfIZ"/>
	</g>
	<g id="el_PrX1gjJGHj">
		<polyline points="85.278,179.705 121.788,142.248 &#10;&#9;&#9;&#9;134.045,128.598 152.204,109.028 180.089,79.656 206.684,47.595 216.648,33.668 &#9;&#9;" id="el_CuRwPqljuy"/>
	</g>
	<g id="el_ouvXVH3-g-">
		<polyline points="113.572,75.78 133.35,129.637 &#10;&#9;&#9;&#9;225.957,231.271 246.99,288.12 &#9;&#9;" id="el_ctRMOcP4UU"/>
	</g>
	<g id="el_A02O2bRbFy">
		<path d="M113.597,288.12l19.49-56.323&#10;&#9;&#9;&#9; M133.086,231.797l10.435,95.549" id="el_bfXA_iuU7t"/>
	</g>
	
		<line x1="225.957" y1="231.271" x2="217.992" y2="327.369" id="el_7bayfMaEcN"/>
	<g id="el_RbJB169yfo">
		<polyline points="133.35,231.797 226.909,128.382 &#10;&#9;&#9;&#9;247.769,75.324 &#9;&#9;" id="el_AK2nYG6OBC"/>
	</g>
	<g id="el_Ude-6eWpwS">
		<polyline points="275.588,180.153 224.334,232.58 &#10;&#9;&#9;&#9;205.267,253.058 180,277.766 143.383,327.205 &#9;&#9;" id="el_Vp1XecHp_G"/>
	</g>
	<g id="el_a6tqrLq8iU">
		<polyline points="275.487,180.313 239.673,142.248 &#10;&#9;&#9;&#9;227.416,128.598 209.257,109.028 180.089,79.656 154.778,47.595 144.337,34.08 &#9;&#9;" id="el_Sykm-lqmTrC"/>
	</g>
	
		<line x1="133.35" y1="129.637" x2="144.337" y2="34.08" id="el_qkNVLfN_yNa"/>
	
		<line x1="226.909" y1="128.382" x2="216.648" y2="33.668" id="el_ZN9ZBYgZbB8"/>
	<g id="el_tdHqJJI64YJ">
		
			<line x1="180.198" y1="2.398" x2="180.173" y2="355.864" id="el_DzQIwx5KY0k"/>
	</g>
</g></g>
<g id="el_ksvm8k8SzQz">
	<g id="el_3GaZGEyxTWs">
		<g id="el_YlONWBQ7Trp">
			<path d="M180.5,356.953&#10;&#9;&#9;&#9;&#9;C71.573,293.136,36.68,107.3,180.5,2C324.32,107.3,289.427,293.136,180.5,356.953z" id="el__qhNppDwqpz"/>
		</g>
		<g id="el_lU_glFUdVl9">
			<g id="el_ZvdTFw88UqQ">
				<g id="el_gaJm3O0pI08">
					<path d="M116.157,133.455l-2.613-58.301&#10;&#9;&#9;&#9;&#9;&#9;&#9; M113.773,75.008l41.024-30.734" id="el_kCWxkWo--Pg"/>
				</g>
				<g id="el_yX9EmyOozDX">
					
						<line x1="154.797" y1="44.274" x2="180.202" y2="2.069" id="el_WHHo4br6dn6"/>
				</g>
				<g id="el_yaOHbLMVETI">
					<path d="M153.604,263.504l-17.976-83.551&#10;&#9;&#9;&#9;&#9;&#9;&#9; M135.628,179.953l-19.471-46.499" id="el_Zgyffg1MdoL"/>
				</g>
				<g id="el_FG6scJRTA6m">
					
						<line x1="154.218" y1="315.52" x2="180.446" y2="357" id="el_EMM_ZWTfsTT"/>
				</g>
				<g id="el_4JoGykZs0hd">
					
						<line x1="153.604" y1="263.504" x2="154.218" y2="315.52" id="el_uQ4dNcHdkFz"/>
				</g>
				<g id="el_6z_N3KHIYeI">
					<polyline points="180.192,60.311 206.69,43.7 &#10;&#9;&#9;&#9;&#9;&#9;&#9;216.648,33.668 &#9;&#9;&#9;&#9;&#9;" id="el_gEE6B3luPu8"/>
				</g>
				<g id="el_3LlYGE8-zER">
					
						<line x1="153.053" y1="95.53" x2="180.089" y2="60.311" id="el_Noa-eTVXT5l"/>
				</g>
				<g id="el_FtUVqRvETS2">
					
						<line x1="116.009" y1="133.514" x2="153.071" y2="95.446" id="el_CCQiD6YxGMP"/>
				</g>
				<g id="el_yYa6LMyuNJF">
					
						<line x1="85.278" y1="179.705" x2="116.009" y2="133.514" id="el_7gbojLkc9Wt"/>
				</g>
				<g id="el_iOGELATy5_q">
					
						<line x1="206.279" y1="315.369" x2="218.151" y2="327.205" id="el_jtG1jvllelp"/>
				</g>
				<g id="el_Fly6Rm3iLo1">
					
						<line x1="180.315" y1="299.933" x2="206.918" y2="316.006" id="el_CDmE25vzeBg"/>
				</g>
				<g id="el_zUbTVjxEj0h">
					
						<line x1="153.604" y1="263.504" x2="180.315" y2="299.933" id="el_QjHdzDJIIps"/>
				</g>
				<g id="el_2fFfhlE7oAb">
					
						<line x1="116.068" y1="228.475" x2="153.604" y2="263.504" id="el_vGkzhk54cG4"/>
				</g>
				<g id="el_Y4yVzJCoYx9">
					
						<line x1="85.278" y1="179.705" x2="116.068" y2="228.475" id="el_hsFd8UGw--v"/>
				</g>
				<g id="el_G_WCaFWB1gb">
					
						<line x1="153.185" y1="94.898" x2="154.886" y2="43.744" id="el_ne3MLnHpvGc"/>
				</g>
				<g id="el_vJ-ONc8dWr2">
					
						<line x1="135.041" y1="181.856" x2="153.185" y2="94.898" id="el_wLK0_0i1qih"/>
				</g>
				<g id="el_PRp5zPN5ZOL">
					
						<line x1="115.454" y1="227.463" x2="135.041" y2="181.856" id="el_gZn4oeEEp-O"/>
				</g>
				<g id="el_tQ_vtKyHlqf">
					
						<line x1="113.597" y1="287.236" x2="115.454" y2="227.463" id="el_fM2D9CNWGfo"/>
				</g>
				<g id="el_cL3ESUZAZ91">
					
						<line x1="154.319" y1="315.422" x2="113.08" y2="287.214" id="el_FyGDtj8WYOt"/>
				</g>
			</g>
			<g id="el_lA1iTvQROz_">
				<g id="el_5HaBR9A-gDd">
					<path d="M244.841,133.455l2.775-57.899&#10;&#9;&#9;&#9;&#9;&#9;&#9; M247.222,74.949L206.2,44.274" id="el_TmFgSJmcOlV"/>
				</g>
				<g id="el_F-t9BFri_JW">
					
						<line x1="206.2" y1="44.274" x2="180.646" y2="2.072" id="el_K4qAv1vXMR6"/>
				</g>
				<g id="el_36N3F0uLGzl">
					<path d="M207.79,263.257l17.705-83.61&#10;&#9;&#9;&#9;&#9;&#9;&#9; M225.495,179.646l19.346-46.192" id="el_Fys7hjK2hjA"/>
				</g>
				<g id="el_uVCnqzMTfnm">
					
						<line x1="206.779" y1="315.52" x2="180.552" y2="357" id="el_xlI1ny6TbAv"/>
				</g>
				<g id="el_Qd4n667UTrY">
					
						<line x1="207.79" y1="263.257" x2="206.279" y2="315.369" id="el_8jRnEnGM5Db"/>
				</g>
				<g id="el_uqxmPtnKQLj">
					<polyline points="180.192,60.225 153.836,43.491 &#10;&#9;&#9;&#9;&#9;&#9;&#9;143.903,33.649 &#9;&#9;&#9;&#9;&#9;" id="el_GmYxVBOXyFx"/>
				</g>
				<g id="el_Q0z8RvQXWgX">
					
						<line x1="208.024" y1="95.914" x2="180.192" y2="60.225" id="el_bCdrIkEyOpt"/>
				</g>
				<g id="el_cRb45p13MHC">
					
						<line x1="244.988" y1="133.514" x2="208.024" y2="95.914" id="el_qmFYAeiC1u7"/>
				</g>
				<g id="el_s34jkzJ8CEC">
					
						<line x1="275.724" y1="179.939" x2="244.988" y2="133.514" id="el_HOU60sp6lxb"/>
				</g>
				<g id="el_I4ypeRfl0As">
					
						<line x1="154.718" y1="315.369" x2="143.521" y2="327.346" id="el_jWKMdBSyqDw"/>
				</g>
				<g id="el_zqx4VUVdd0_">
					
						<line x1="180.683" y1="299.933" x2="154.718" y2="315.369" id="el_B4owYAvlH3c"/>
				</g>
				<g id="el_DBvMqIMycph">
					
						<line x1="207.79" y1="263.257" x2="180.683" y2="299.933" id="el_p4Jp5YQyp86"/>
				</g>
				<g id="el_ZqXuUahOFoC">
					
						<line x1="244.929" y1="228.475" x2="207.79" y2="263.257" id="el_3izVtddGAZw"/>
				</g>
				<g id="el__BkDvWuQnr_">
					
						<line x1="275.724" y1="179.939" x2="244.929" y2="228.475" id="el_BopR0wNIOgl"/>
				</g>
				<g id="el_l0istcRMnbA">
					
						<line x1="207.813" y1="94.898" x2="206.111" y2="43.744" id="el_csYNns5Zu6f"/>
				</g>
				<g id="el_qZ6Q3REBnIW">
					
						<line x1="225.957" y1="181.856" x2="207.813" y2="94.898" id="el_1Kr00jyBDiy"/>
				</g>
				<g id="el_7Yi-zYraW1I">
					
						<line x1="245.234" y1="226.757" x2="225.957" y2="181.856" id="el_lFENu1XM9p-"/>
				</g>
				<g id="el_FN9X7Rm4H1w">
					
						<line x1="247.152" y1="287.214" x2="245.234" y2="226.757" id="el_KmgexdiBkzP"/>
				</g>
				<g id="el_WA7OllMWW_e">
					
						<line x1="206.679" y1="315.422" x2="247.192" y2="287.236" id="el_mMKCJ5YdX"/>
				</g>
			</g>
		</g>
	</g>
</g>
</svg>