<svg version="1.1" id="el_QbCRz7qqx" xmlns="http://www.w3.org/2000/svg" xmlns:xlink="http://www.w3.org/1999/xlink" x="0px" y="0px" width="360" height="360" viewBox="0 0 360 360" style="enable-background:new 0 0 360 360;" xml:space="preserve"><style>@-webkit-keyframes kf_el_Jz9E7PyiNc_an_uDBbxv2Kz{0%{-webkit-transform: translate(179.72149276733398px, 181.31700134277344px) scale(0.02, 0.02) translate(-179.72149276733398px, -181.31700134277344px);transform: translate(179.72149276733398px, 181.31700134277344px) scale(0.02, 0.02) translate(-179.72149276733398px, -181.31700134277344px);}66.67%{-webkit-transform: translate(179.72149276733398px, 181.31700134277344px) scale(1, 1) translate(-179.72149276733398px, -181.31700134277344px);transform: translate(179.72149276733398px, 181.31700134277344px) scale(1, 1) translate(-179.72149276733398px, -181.31700134277344px);}100%{-webkit-transform: translate(179.72149276733398px, 181.31700134277344px) scale(1, 1) translate(-179.72149276733398px, -181.31700134277344px);transform: translate(179.72149276733398px, 181.31700134277344px) scale(1, 1) translate(-179.72149276733398px, -181.31700134277344px);}}@keyframes kf_el_Jz9E7PyiNc_an_uDBbxv2Kz{0%{-webkit-transform: translate(179.72149276733398px, 181.31700134277344px) scale(0.02, 0.02) translate(-179.72149276733398px, -181.31700134277344px);transform: translate(179.72149276733398px, 181.31700134277344px) scale(0.02, 0.02) translate(-179.72149276733398px, -181.31700134277344px);}66.67%{-webkit-transform: translate(179.72149276733398px, 181.31700134277344px) scale(1, 1) translate(-179.72149276733398px, -181.31700134277344px);transform: translate(179.72149276733398px, 181.31700134277344px) scale(1, 1) translate(-179.72149276733398px, -181.31700134277344px);}100%{-webkit-transform: translate(179.72149276733398px, 181.31700134277344px) scale(1, 1) translate(-179.72149276733398px, -181.31700134277344px);transform: translate(179.72149276733398px, 181.31700134277344px) scale(1, 1) translate(-179.72149276733398px, -181.31700134277344px);}}#el_QbCRz7qqx *{-webkit-animation-duration: 3s;animation-duration: 3s;-webkit-animation-iteration-count: infinite;animation-iteration-count: infinite;-webkit-animation-timing-function: cubic-bezier(0, 0, 1, 1);animation-timing-function: cubic-bezier(0, 0, 1, 1);}#el_2e_igecoPC{fill: none;stroke: #D1D3D4;stroke-width: 2;stroke-miterlimit: 22.9256;}#el_bXGoWUsH8k{fill: none;stroke: #D1D3D4;stroke-width: 2;stroke-miterlimit: 22.9256;}#el_RqblznyK1B{fill: none;stroke: #D1D3D4;stroke-width: 2;stroke-miterlimit: 22.9256;}#el_AGIe3exOPG{fill: none;stroke: #D1D3D4;stroke-width: 2;stroke-miterlimit: 22.9256;}#el_r_fFnYR6x7{fill: none;stroke: #D1D3D4;stroke-width: 2;stroke-miterlimit: 22.9256;}#el_Rrf071eTWi{fill: none;stroke: #D1D3D4;stroke-width: 2;stroke-miterlimit: 22.9256;}#el_dbwpQQdhvhO{fill: none;stroke: #D1D3D4;stroke-width: 2;stroke-miterlimit: 22.9256;}#el_DAo61L83OUg{fill: none;stroke: #D1D3D4;stroke-width: 2;stroke-miterlimit: 22.9256;}#el_Fy3pk0KUqDe{fill: none;stroke: #D1D3D4;stroke-width: 2;stroke-miterlimit: 22.9256;}#el_v6SyBDjMQ82{fill: none;stroke: #D1D3D4;stroke-width: 2;stroke-miterlimit: 22.9256;}#el_rVeKaYHa8AB{fill: none;stroke: #333366;stroke-width: 2;stroke-miterlimit: 22.9256;}#el_FLUBp_f2bzM{fill: none;stroke: #333366;stroke-width: 2;stroke-linecap: round;stroke-linejoin: round;stroke-miterlimit: 22.9256;}#el_IIqUTvAyNb0{fill: none;stroke: #333366;stroke-width: 2;stroke-miterlimit: 22.9256;}#el_eFJLSBUDAhS{fill: none;stroke: #333366;stroke-width: 2;stroke-miterlimit: 22.9256;}#el_rSAWVYDdou7{fill: none;stroke: #333366;stroke-width: 2;stroke-miterlimit: 22.9256;}#el_bavCZ53Ahmc{fill: none;stroke: #333366;stroke-width: 2;stroke-miterlimit: 22.9256;}#el_fPngW8o_DK6{fill: none;stroke: #333366;stroke-width: 2;stroke-miterlimit: 22.9256;}#el_n-kSuMETNYZ{fill: none;stroke: #333366;stroke-width: 2;stroke-miterlimit: 22.9256;}#el_MYfAPPlyWMk{fill: none;stroke: #333366;stroke-width: 2;stroke-miterlimit: 22.9256;}#el_teLp5Cfz8aW{fill: none;stroke: #333366;stroke-width: 2;stroke-miterlimit: 22.9256;}#el_Ur7IRyvJKi9{fill: none;stroke: #333366;stroke-width: 2;stroke-miterlimit: 22.9256;}#el_B3HNXlsgALG{fill: none;stroke: #333366;stroke-width: 2;stroke-miterlimit: 22.9256;}#el_HWagJ9U8sPm{fill: none;stroke: #333366;stroke-width: 2;stroke-miterlimit: 22.9256;}#el_Q2XIZDPpOHj{fill: none;stroke: #333366;stroke-width: 2;stroke-miterlimit: 22.9256;}#el_N_N89s79Bnx{fill: none;stroke: #333366;stroke-width: 2;stroke-miterlimit: 22.9256;}#el_Jz9E7PyiNc_an_uDBbxv2Kz{-webkit-animation-fill-mode: backwards;animation-fill-mode: backwards;-webkit-transform: translate(179.72149276733398px, 181.31700134277344px) scale(0.02, 0.02) translate(-179.72149276733398px, -181.31700134277344px);transform: translate(179.72149276733398px, 181.31700134277344px) scale(0.02, 0.02) translate(-179.72149276733398px, -181.31700134277344px);-webkit-animation-name: kf_el_Jz9E7PyiNc_an_uDBbxv2Kz;animation-name: kf_el_Jz9E7PyiNc_an_uDBbxv2Kz;-webkit-animation-timing-function: cubic-bezier(0, 0, 1, 1);animation-timing-function: cubic-bezier(0, 0, 1, 1);}</style>
<g id="el_Jz9E7PyiNc_an_uDBbxv2Kz" data-animator-group="true" data-animator-type="2"><g id="el_Jz9E7PyiNc">
	<g id="el_M3Bgg2ON4O">
		<g id="el_TX2V5QAOHZ">
			<polyline points="180.398,120.31 126.381,23.819 &#10;&#9;&#9;&#9;&#9;146.52,138.152 52.712,115.512 131.604,180.359 53.782,247.056 148.948,221.407 130.631,338.815 181.585,239.861 &#9;&#9;&#9;" id="el_2e_igecoPC"/>
		</g>
		<g id="el_oY8EPi7aiy">
			<polyline points="126.48,24.103 180.994,180.359 &#10;&#9;&#9;&#9;&#9;94.465,74.422 &#9;&#9;&#9;" id="el_bXGoWUsH8k"/>
		</g>
		<g id="el_5H2THXI0SB">
			<polyline points="53.439,116.109 180.994,180.359 &#10;&#9;&#9;&#9;&#9;54.688,246.812 &#9;&#9;&#9;" id="el_RqblznyK1B"/>
		</g>
		<g id="el_IaYWyaUYOa">
			<polyline points="97.977,286.693 180.994,180.359 &#10;&#9;&#9;&#9;&#9;130.725,338.214 &#9;&#9;&#9;" id="el_AGIe3exOPG"/>
		</g>
	</g>
	<g id="el__b0dCqbXzU">
		
			<line x1="182.489" y1="331.039" x2="179.505" y2="30.317" id="el_r_fFnYR6x7"/>
	</g>
	<g id="el_Ql2Zo7DYR8">
		<g id="el_dh264m1Ene">
			<polyline points="180.398,120.31 235.296,26.075 &#10;&#9;&#9;&#9;&#9;214.214,139.502 306.731,115.588 228.053,180.359 305.666,246.734 212.165,220.415 231.966,336.947 181.585,239.861 &#9;&#9;&#9;" id="el_Rrf071eTWi"/>
		</g>
		<g id="el_6NHmb6bHSOR">
			<polyline points="234.966,27.014 180.994,180.359 &#10;&#9;&#9;&#9;&#9;267.13,74.422 &#9;&#9;&#9;" id="el_dbwpQQdhvhO"/>
		</g>
		<g id="el_0jpswsHAjKU">
			<polyline points="306.731,115.588 180.994,180.359 &#10;&#9;&#9;&#9;&#9;304.679,246.383 &#9;&#9;&#9;" id="el_DAo61L83OUg"/>
		</g>
		<g id="el_u7FnCaRbuhB">
			<polyline points="263.741,286.693 180.994,180.359 &#10;&#9;&#9;&#9;&#9;231.727,336.213 &#9;&#9;&#9;" id="el_Fy3pk0KUqDe"/>
		</g>
	</g>
	
		<line x1="60.917" y1="180.359" x2="299.49" y2="180.359" id="el_v6SyBDjMQ82"/>
</g></g>
<g id="el_l1kStxN2ADI">
	<g id="el_LjTRc23XyXw">
		<path d="M179.505,5.5&#10;&#9;&#9;&#9;c77.849,0,140.98,78.367,140.98,175s-63.131,175-140.98,175c-77.848,0-140.98-78.367-140.98-175S101.657,5.5,179.505,5.5z" id="el_rVeKaYHa8AB"/>
	</g>
	
		<line x1="179.505" y1="30.317" x2="179.505" y2="5.5" id="el_FLUBp_f2bzM"/>
	<g id="el_QPN-bfmk6m4">
		
			<line x1="182.489" y1="355.5" x2="182.489" y2="331.039" id="el_IIqUTvAyNb0"/>
	</g>
	<g id="el_cJIk7F2qlsS">
		<g id="el_HUtvM60pcLz">
			<polyline points="179.505,30.317 125.112,19.417 &#10;&#9;&#9;&#9;&#9;94.465,74.422 49.276,113.699 60.917,180.359 50.212,248.954 97.977,286.693 128.909,343.625 182.489,331.039 &#9;&#9;&#9;" id="el_eFJLSBUDAhS"/>
		</g>
		<g id="el_0V0YJ-zqBYO">
			<polyline points="79.887,56.479 94.465,74.422 &#10;&#9;&#9;&#9;&#9;98.531,138.327 100.037,220.741 97.977,286.693 80.717,305.339 &#9;&#9;&#9;" id="el_rSAWVYDdou7"/>
		</g>
		<g id="el_roaTqx2Gj1G">
			<polyline points="179.802,29.756 146.747,78.31 &#10;&#9;&#9;&#9;&#9;98.675,138.49 60.917,180.359 100.037,220.741 148.593,280.021 182.489,331.039 &#9;&#9;&#9;" id="el_bavCZ53Ahmc"/>
		</g>
		<g id="el_fIpd1FXOtKQ">
			
				<line x1="38.596" y1="180.359" x2="60.917" y2="180.359" id="el_fPngW8o_DK6"/>
		</g>
		<g id="el_nCy-XFKHZXm">
			<polyline points="94.465,74.422 146.747,78.31 &#10;&#9;&#9;&#9;&#9;180.486,78.31 &#9;&#9;&#9;" id="el_n-kSuMETNYZ"/>
		</g>
		<g id="el_W59UqEZLrs8">
			<polyline points="97.977,286.693 148.539,280.313 &#10;&#9;&#9;&#9;&#9;180.784,280.313 &#9;&#9;&#9;" id="el_MYfAPPlyWMk"/>
		</g>
	</g>
	<g id="el_Ajt1Kguhofy">
		<g id="el_SNP-EjHW0eT">
			<polyline points="179.505,30.317 237.195,20.997 &#10;&#9;&#9;&#9;&#9;267.13,74.422 309.716,114.023 299.49,180.359 309.082,248.581 263.741,286.693 233.688,341.442 182.489,331.039 &#9;&#9;&#9;" id="el_teLp5Cfz8aW"/>
		</g>
		<g id="el_Q6nsa39tjRe">
			<polyline points="279.7,57.695 267.13,74.422 &#10;&#9;&#9;&#9;&#9;263.321,137.194 261.722,220.778 263.741,286.693 278.886,304.611 &#9;&#9;&#9;" id="el_Ur7IRyvJKi9"/>
		</g>
		<g id="el_abndUGdpjyJ">
			<polyline points="179.505,30.317 216.696,78.31 &#10;&#9;&#9;&#9;&#9;263.321,137.194 299.49,180.359 261.722,220.778 214.915,280.021 182.489,331.039 &#9;&#9;&#9;" id="el_B3HNXlsgALG"/>
		</g>
		<g id="el__h-EJcgGq7B">
			
				<line x1="320.695" y1="180.359" x2="299.49" y2="180.359" id="el_HWagJ9U8sPm"/>
		</g>
		<g id="el_Bjom2seiV7i">
			<polyline points="267.13,74.422 216.696,78.31 &#10;&#9;&#9;&#9;&#9;179.674,78.31 &#9;&#9;&#9;" id="el_Q2XIZDPpOHj"/>
		</g>
		<g id="el_h-Q4HuyPLU2">
			<polyline points="263.741,286.693 214.969,280.313 &#10;&#9;&#9;&#9;&#9;177.054,280.313 &#9;&#9;&#9;" id="el_N_N89s79Bnx"/>
		</g>
	</g>
</g>
</svg>