<svg version="1.1" id="el_Hp8EYCFbX" xmlns="http://www.w3.org/2000/svg" xmlns:xlink="http://www.w3.org/1999/xlink" x="0px" y="0px" width="360" height="360" viewBox="0 0 360 360" style="enable-background:new 0 0 360 360;" xml:space="preserve"><style>@-webkit-keyframes kf_el_kljt3IZUuL_an_CNN5ASUr7{0%{-webkit-transform: translate(180.7229995727539px, 180.73349475860596px) scale(0.02, 0.02) translate(-180.7229995727539px, -180.73349475860596px);transform: translate(180.7229995727539px, 180.73349475860596px) scale(0.02, 0.02) translate(-180.7229995727539px, -180.73349475860596px);}66.67%{-webkit-transform: translate(180.7229995727539px, 180.73349475860596px) scale(1, 1) translate(-180.7229995727539px, -180.73349475860596px);transform: translate(180.7229995727539px, 180.73349475860596px) scale(1, 1) translate(-180.7229995727539px, -180.73349475860596px);}100%{-webkit-transform: translate(180.7229995727539px, 180.73349475860596px) scale(1, 1) translate(-180.7229995727539px, -180.73349475860596px);transform: translate(180.7229995727539px, 180.73349475860596px) scale(1, 1) translate(-180.7229995727539px, -180.73349475860596px);}}@keyframes kf_el_kljt3IZUuL_an_CNN5ASUr7{0%{-webkit-transform: translate(180.7229995727539px, 180.73349475860596px) scale(0.02, 0.02) translate(-180.7229995727539px, -180.73349475860596px);transform: translate(180.7229995727539px, 180.73349475860596px) scale(0.02, 0.02) translate(-180.7229995727539px, -180.73349475860596px);}66.67%{-webkit-transform: translate(180.7229995727539px, 180.73349475860596px) scale(1, 1) translate(-180.7229995727539px, -180.73349475860596px);transform: translate(180.7229995727539px, 180.73349475860596px) scale(1, 1) translate(-180.7229995727539px, -180.73349475860596px);}100%{-webkit-transform: translate(180.7229995727539px, 180.73349475860596px) scale(1, 1) translate(-180.7229995727539px, -180.73349475860596px);transform: translate(180.7229995727539px, 180.73349475860596px) scale(1, 1) translate(-180.7229995727539px, -180.73349475860596px);}}#el_Hp8EYCFbX *{-webkit-animation-duration: 3s;animation-duration: 3s;-webkit-animation-iteration-count: infinite;animation-iteration-count: infinite;-webkit-animation-timing-function: cubic-bezier(0, 0, 1, 1);animation-timing-function: cubic-bezier(0, 0, 1, 1);}#el_yhFFEAUoqb{fill: none;stroke: #D1D3D4;stroke-width: 2;stroke-miterlimit: 22.9256;}#el_5FyeQtRNT8{fill: none;stroke: #D1D3D4;stroke-width: 2;stroke-miterlimit: 22.9256;}#el_R21SMHYAHy{fill: none;stroke: #D1D3D4;stroke-width: 2;stroke-miterlimit: 22.9256;}#el_fYOFsStDaE{fill: none;stroke: #D1D3D4;stroke-width: 2;stroke-miterlimit: 22.9256;}#el_EVwhpGUK-3{fill: none;stroke: #D1D3D4;stroke-width: 2;stroke-miterlimit: 22.9256;}#el_myxKnY3u-9{fill: none;stroke: #D1D3D4;stroke-width: 2;stroke-miterlimit: 22.9256;}#el_Sqryz_4x_pF{fill: none;stroke: #D1D3D4;stroke-width: 2;stroke-miterlimit: 22.9256;}#el_EsSTXXB-PGX{fill: none;stroke: #D1D3D4;stroke-width: 2;stroke-miterlimit: 22.9256;}#el_H29mLcxpMwc{fill: none;stroke: #D1D3D4;stroke-width: 2;stroke-miterlimit: 22.9256;}#el_byrh2wj3c5X{fill: none;stroke: #D1D3D4;stroke-width: 2;stroke-miterlimit: 22.9256;}#el_KRHC9mWAAwV{fill: none;stroke: #D1D3D4;stroke-width: 2;stroke-miterlimit: 22.9256;}#el_2uZQr5ZqDZ0{fill: none;stroke: #333366;stroke-width: 2;stroke-miterlimit: 22.9256;}#el_aa4YlABqzxV{fill: none;stroke: #333366;stroke-width: 2;stroke-miterlimit: 22.9256;}#el_FI9qNpQdsGI{fill: none;stroke: #333366;stroke-width: 2;stroke-miterlimit: 22.9256;}#el_KXSgdoKNnPy{fill: none;stroke: #333366;stroke-width: 2;stroke-miterlimit: 22.9256;}#el_O0Tewq0lKVS{fill: none;stroke: #333366;stroke-width: 2;stroke-miterlimit: 22.9256;}#el_853CPAZC_wH{fill: none;stroke: #333366;stroke-width: 2;stroke-miterlimit: 22.9256;}#el_CnB29QUcoEe{fill: none;stroke: #333366;stroke-width: 2;stroke-miterlimit: 22.9256;}#el_oWrN0kqkmF9{fill: none;stroke: #333366;stroke-width: 2;stroke-miterlimit: 22.9256;}#el_2HNSc9sS3bv{fill: none;stroke: #333366;stroke-width: 2;stroke-miterlimit: 22.9256;}#el_u6h45Y6NqqC{fill: none;stroke: #333366;stroke-width: 2;stroke-miterlimit: 22.9256;}#el_HUp8aLc54-c{fill: none;stroke: #333366;stroke-width: 2;stroke-miterlimit: 22.9256;}#el_YSDyPEjf79J{fill: none;stroke: #333366;stroke-width: 2;stroke-miterlimit: 22.9256;}#el__Yp__8GI5sm{fill: none;stroke: #333366;stroke-width: 2;stroke-miterlimit: 22.9256;}#el_v2fyJGCHOgb{fill: none;stroke: #333366;stroke-width: 2;stroke-miterlimit: 22.9256;}#el_S9TXqqvwF_h{fill: none;stroke: #333366;stroke-width: 2;stroke-miterlimit: 22.9256;}#el_kljt3IZUuL_an_CNN5ASUr7{-webkit-animation-fill-mode: backwards;animation-fill-mode: backwards;-webkit-transform: translate(180.7229995727539px, 180.73349475860596px) scale(0.02, 0.02) translate(-180.7229995727539px, -180.73349475860596px);transform: translate(180.7229995727539px, 180.73349475860596px) scale(0.02, 0.02) translate(-180.7229995727539px, -180.73349475860596px);-webkit-animation-name: kf_el_kljt3IZUuL_an_CNN5ASUr7;animation-name: kf_el_kljt3IZUuL_an_CNN5ASUr7;-webkit-animation-timing-function: cubic-bezier(0, 0, 1, 1);animation-timing-function: cubic-bezier(0, 0, 1, 1);}</style>
<g id="el_kljt3IZUuL_an_CNN5ASUr7" data-animator-group="true" data-animator-type="2"><g id="el_kljt3IZUuL">
	<g id="el_napP9N5Bev">
		<g id="el_tdjdKQqapc">
			
				<line x1="160.718" y1="25.125" x2="180.367" y2="230.773" id="el_yhFFEAUoqb"/>
		</g>
		<g id="el_y7X2T1mM44">
			<polyline points="158.951,212.669 111.826,116.048 &#10;&#9;&#9;&#9;&#9;175.434,194.054 133.583,63.49 &#9;&#9;&#9;" id="el_5FyeQtRNT8"/>
		</g>
		<g id="el_FhQe57lf1N">
			
				<line x1="88.624" y1="152.721" x2="180.385" y2="230.579" id="el_R21SMHYAHy"/>
		</g>
		<g id="el_2HTi6ZshXH">
			<polyline points="158.657,212.384 79.797,203.578 &#10;&#9;&#9;&#9;&#9;155.868,237.899 97.162,311.759 168.635,263.857 180.409,357.842 &#9;&#9;&#9;" id="el_fYOFsStDaE"/>
		</g>
		<g id="el_SqQe7J5Okr">
			<polyline points="138.459,348.951 180.385,230.579 &#10;&#9;&#9;&#9;&#9;70.989,262.59 &#9;&#9;&#9;" id="el_EVwhpGUK-3"/>
		</g>
	</g>
	<g id="el_fOSK2FjSzu">
		<g id="el_toDBrKRLCE">
			
				<line x1="199.983" y1="26.37" x2="180.367" y2="230.773" id="el_myxKnY3u-9"/>
		</g>
		<g id="el_A6BaaQioGX6">
			<polyline points="202.335,212.384 249.25,115.167 &#10;&#9;&#9;&#9;&#9;184.893,194.279 226.762,63.755 &#9;&#9;&#9;" id="el_Sqryz_4x_pF"/>
		</g>
		<g id="el_cueJfREppHe">
			
				<line x1="272.613" y1="152.47" x2="180.367" y2="230.773" id="el_EsSTXXB-PGX"/>
		</g>
		<g id="el_K8DHH-funpx">
			<polyline points="202.335,212.384 281.469,203.602 &#10;&#9;&#9;&#9;&#9;204.955,237.83 262.834,311.042 192.105,262.929 180.385,358 &#9;&#9;&#9;" id="el_H29mLcxpMwc"/>
		</g>
		<g id="el_j5WbaKG1slm">
			<polyline points="222.82,348.951 180.385,230.579 &#10;&#9;&#9;&#9;&#9;290.457,262.629 &#9;&#9;&#9;" id="el_byrh2wj3c5X"/>
		</g>
	</g>
	<g id="el_jbWU29ZyTPn">
		
			<line x1="180.385" y1="3.467" x2="180.367" y2="230.773" id="el_KRHC9mWAAwV"/>
	</g>
</g></g>
<g id="el_TBAL_qulWkB">
	<g id="el_pw0PtmEB5A2">
		<path d="M179.407,358&#10;&#9;&#9;&#9;c58.501,0,110.248-48.151,111.838-105.673c2.367-85.692-50.926-181.87-110.807-249.319&#10;&#9;&#9;&#9;c-51.687,49.442-166.78,241.809-78.517,322.355C119.243,341.17,138.47,353.982,179.407,358z" id="el_2uZQr5ZqDZ0"/>
	</g>
	<g id="el_JvWH9Wuve1F">
		<g id="el_35lEJhcEwPC">
			<polyline points="180.379,3 170.072,86.43 &#10;&#9;&#9;&#9;&#9;159.331,135.534 128.523,221.834 96.895,254.945 93.188,315.5 151.051,313.443 180.38,357.697 &#9;&#9;&#9;" id="el_aa4YlABqzxV"/>
		</g>
		<g id="el_lSiSA5eTHC9">
			<polyline points="133.583,63.49 170.071,86.621 &#10;&#9;&#9;&#9;&#9;180.542,102.462 159.331,135.534 121.116,168.884 74.415,202.143 96.895,254.945 136.061,276.074 151.051,313.443 &#9;&#9;&#9;" id="el_FI9qNpQdsGI"/>
		</g>
		<g id="el_NtYLVf76BnE">
			<polyline points="169.557,86.945 107.625,110.422 &#10;&#9;&#9;&#9;&#9;121.338,168.69 128.846,223.51 136.061,276.074 &#9;&#9;&#9;" id="el_KXSgdoKNnPy"/>
		</g>
		<g id="el_3SbimzhgAXW">
			
				<line x1="88.624" y1="152.512" x2="121.338" y2="168.69" id="el_O0Tewq0lKVS"/>
		</g>
		<g id="el_wLPCYiFFTEn">
			
				<line x1="71.086" y1="262.59" x2="96.895" y2="254.945" id="el_853CPAZC_wH"/>
		</g>
	</g>
	<g id="el_3EDCtILPOxo">
		<g id="el_ukqYgyhruWM">
			<polyline points="180.382,3 190.688,86.43 &#10;&#9;&#9;&#9;&#9;201.354,135.188 232.237,221.834 263.866,254.945 266.834,314.751 209.926,312.838 180.38,357.697 &#9;&#9;&#9;" id="el_CnB29QUcoEe"/>
		</g>
		<g id="el_3JcqHy55Xdr">
			<polyline points="226.762,63.755 190.689,86.621 &#10;&#9;&#9;&#9;&#9;180.542,102.462 201.354,135.188 239.324,168.601 286.391,202.078 263.866,254.945 224.701,276.074 209.926,312.838 &#9;&#9;&#9;" id="el_oWrN0kqkmF9"/>
		</g>
		<g id="el_WSD7mDuRGRp">
			<polyline points="191.204,86.945 253.438,110.109 &#10;&#9;&#9;&#9;&#9;239.324,168.601 232.188,221.692 224.701,276.074 &#9;&#9;&#9;" id="el_2HNSc9sS3bv"/>
		</g>
		<g id="el_eNnhTf5QCaa">
			
				<line x1="272.613" y1="152.47" x2="239.324" y2="168.601" id="el_u6h45Y6NqqC"/>
		</g>
		<g id="el_zEgo5m6Dk8s">
			
				<line x1="290.457" y1="262.629" x2="263.866" y2="254.945" id="el_HUp8aLc54-c"/>
		</g>
	</g>
	
		<line x1="209.926" y1="312.838" x2="222.82" y2="348.951" id="el_YSDyPEjf79J"/>
	
		<line x1="138.459" y1="348.951" x2="150.962" y2="313.694" id="el__Yp__8GI5sm"/>
	
		<line x1="151.051" y1="313.443" x2="224.701" y2="276.074" id="el_v2fyJGCHOgb"/>
	
		<line x1="136.061" y1="276.074" x2="209.926" y2="312.838" id="el_S9TXqqvwF_h"/>
</g>
</svg>