<svg version="1.1" id="el_dn_A4E6Cx" xmlns="http://www.w3.org/2000/svg" xmlns:xlink="http://www.w3.org/1999/xlink" x="0px" y="0px" width="355" height="355" viewBox="0 0 355 355" style="enable-background:new 0 0 355 355;" xml:space="preserve"><style>@-webkit-keyframes kf_el_FaqzLCVMgO_an_2Rdsb6kPN{0%{-webkit-transform: translate(177.63648986816406px, 177.24400544166565px) scale(0.02, 0.02) translate(-177.63648986816406px, -177.24400544166565px);transform: translate(177.63648986816406px, 177.24400544166565px) scale(0.02, 0.02) translate(-177.63648986816406px, -177.24400544166565px);}66.67%{-webkit-transform: translate(177.63648986816406px, 177.24400544166565px) scale(1, 1) translate(-177.63648986816406px, -177.24400544166565px);transform: translate(177.63648986816406px, 177.24400544166565px) scale(1, 1) translate(-177.63648986816406px, -177.24400544166565px);}100%{-webkit-transform: translate(177.63648986816406px, 177.24400544166565px) scale(1, 1) translate(-177.63648986816406px, -177.24400544166565px);transform: translate(177.63648986816406px, 177.24400544166565px) scale(1, 1) translate(-177.63648986816406px, -177.24400544166565px);}}@keyframes kf_el_FaqzLCVMgO_an_2Rdsb6kPN{0%{-webkit-transform: translate(177.63648986816406px, 177.24400544166565px) scale(0.02, 0.02) translate(-177.63648986816406px, -177.24400544166565px);transform: translate(177.63648986816406px, 177.24400544166565px) scale(0.02, 0.02) translate(-177.63648986816406px, -177.24400544166565px);}66.67%{-webkit-transform: translate(177.63648986816406px, 177.24400544166565px) scale(1, 1) translate(-177.63648986816406px, -177.24400544166565px);transform: translate(177.63648986816406px, 177.24400544166565px) scale(1, 1) translate(-177.63648986816406px, -177.24400544166565px);}100%{-webkit-transform: translate(177.63648986816406px, 177.24400544166565px) scale(1, 1) translate(-177.63648986816406px, -177.24400544166565px);transform: translate(177.63648986816406px, 177.24400544166565px) scale(1, 1) translate(-177.63648986816406px, -177.24400544166565px);}}#el_dn_A4E6Cx *{-webkit-animation-duration: 3s;animation-duration: 3s;-webkit-animation-iteration-count: infinite;animation-iteration-count: infinite;-webkit-animation-timing-function: cubic-bezier(0, 0, 1, 1);animation-timing-function: cubic-bezier(0, 0, 1, 1);}#el_gIjWn9Fc44{fill: none;stroke: #CCCCCC;stroke-width: 2;stroke-miterlimit: 22.9256;}#el_eeWcqJ-nFn{fill: none;stroke: #CCCCCC;stroke-width: 2;stroke-miterlimit: 22.9256;}#el_nRRdyTQhwg{fill: none;stroke: #CCCCCC;stroke-width: 2;stroke-miterlimit: 22.9256;}#el_H5zTLjvJZ7{fill: none;stroke: #CCCCCC;stroke-width: 2;stroke-miterlimit: 22.9256;}#el_o8sJtbsRj6{fill: none;stroke: #CCCCCC;stroke-width: 2;stroke-miterlimit: 22.9256;}#el_UVZeiMe75_V{fill: none;stroke: #CCCCCC;stroke-width: 2;stroke-miterlimit: 22.9256;}#el_qC9Upp6s7We{fill: none;stroke: #CCCCCC;stroke-width: 2;stroke-miterlimit: 22.9256;}#el__wyCEb1cifo{fill: none;stroke: #CCCCCC;stroke-width: 2;stroke-miterlimit: 22.9256;}#el_7VEcyokWply{fill: none;stroke: #CCCCCC;stroke-width: 2;stroke-miterlimit: 22.9256;}#el_8-hvW_rTYTV{fill: none;stroke: #CCCCCC;stroke-width: 2;stroke-miterlimit: 22.9256;}#el_yb3KTkocbcF{fill: none;stroke: #CCCCCC;stroke-width: 2;stroke-miterlimit: 22.9256;}#el_nveD_PLzWYg{fill: none;stroke: #CCCCCC;stroke-width: 2;stroke-miterlimit: 22.9256;}#el_7tGhcWAsCkV{fill: none;stroke: #CCCCCC;stroke-width: 2;stroke-miterlimit: 22.9256;}#el_mL7iTaVVr9a{fill: none;stroke: #CCCCCC;stroke-width: 2;stroke-miterlimit: 22.9256;}#el_7OkRUkHAvhM{fill: none;stroke: #CCCCCC;stroke-width: 2;stroke-miterlimit: 22.9256;}#el_gFOAHEu4Ib0{fill: none;stroke: #CCCCCC;stroke-width: 2;stroke-miterlimit: 22.9256;}#el_KwuQddHfMva{fill: none;stroke: #CCCCCC;stroke-width: 2;stroke-miterlimit: 22.9256;}#el_dQ_Lhn_ojWg{fill: none;stroke: #CCCCCC;stroke-width: 2;stroke-miterlimit: 22.9256;}#el_ayF5JHc_rcf{fill: none;stroke: #CCCCCC;stroke-width: 2;stroke-miterlimit: 22.9256;}#el_ECpqO82KE3G{fill: none;stroke: #CCCCCC;stroke-width: 2;stroke-miterlimit: 22.9256;}#el_W7IwFAaoTbH{fill: none;stroke: #CCCCCC;stroke-width: 2;stroke-miterlimit: 22.9256;}#el_qIdEnYcxwSf{fill: none;stroke: #CCCCCC;stroke-width: 2;stroke-miterlimit: 22.9256;}#el_c7JaBeFNiLg{fill: none;stroke: #CCCCCC;stroke-width: 2;stroke-miterlimit: 22.9256;}#el_KtB0obcKV4n{fill: none;stroke: #CCCCCC;stroke-width: 2;stroke-miterlimit: 22.9256;}#el_deRbu8CqBdv{fill: none;stroke: #CCCCCC;stroke-width: 2;stroke-miterlimit: 22.9256;}#el_lR_H8dtaSSM{fill: none;stroke: #CCCCCC;stroke-width: 2;stroke-miterlimit: 22.9256;}#el_lDosgxww8uc{fill: none;stroke: #CCCCCC;stroke-width: 2;stroke-miterlimit: 22.9256;}#el_5DlTM4CGTSL{fill: none;stroke: #CCCCCC;stroke-width: 2;stroke-miterlimit: 22.9256;}#el_jbQMjFHzZoY{fill: none;stroke: #CCCCCC;stroke-width: 2;stroke-miterlimit: 22.9256;}#el_BxK-LDAa-uc{fill: none;stroke: #CCCCCC;stroke-width: 2;stroke-miterlimit: 22.9256;}#el_t95KbYYjQzr{fill: none;stroke: #CCCCCC;stroke-width: 2;stroke-miterlimit: 22.9256;}#el_XkNi9VfMdCa{fill: none;stroke: #333366;stroke-width: 2;stroke-miterlimit: 22.9256;}#el_cV0aH0NnTTy{fill: none;stroke: #333366;stroke-width: 2;stroke-miterlimit: 22.9256;}#el_8C16T-D_1C3{fill: none;stroke: #333366;stroke-width: 2;stroke-miterlimit: 22.9256;}#el_yCCD3Judk9M{fill: none;stroke: #333366;stroke-width: 2;stroke-miterlimit: 22.9256;}#el_4x0ysHbgdBI{fill: none;stroke: #333366;stroke-width: 2;stroke-miterlimit: 22.9256;}#el_knAhnXt0-9b{fill: none;stroke: #333366;stroke-width: 2;stroke-miterlimit: 22.9256;}#el_UyCCmuQxNnT{fill: none;stroke: #333366;stroke-width: 2;stroke-miterlimit: 22.9256;}#el_tdSaE_EUat1{fill: none;stroke: #333366;stroke-width: 2;stroke-miterlimit: 22.9256;}#el_yTaZjjnF6_A{fill: none;stroke: #333366;stroke-width: 2;stroke-miterlimit: 22.9256;}#el_SewPUSTITrQ{fill: none;stroke: #333366;stroke-width: 2;stroke-miterlimit: 22.9256;}#el_Ih5MAfEiT6I{fill: none;stroke: #333366;stroke-width: 2;stroke-miterlimit: 22.9256;}#el_P1XG69IofSb{fill: none;stroke: #333366;stroke-width: 2;stroke-miterlimit: 22.9256;}#el_U23brPpc-m6{fill: none;stroke: #333366;stroke-width: 2;stroke-miterlimit: 22.9256;}#el_CFPfLRcvvTz{fill: none;stroke: #333366;stroke-width: 2;stroke-miterlimit: 22.9256;}#el_FaqzLCVMgO_an_2Rdsb6kPN{-webkit-animation-fill-mode: backwards;animation-fill-mode: backwards;-webkit-transform: translate(177.63648986816406px, 177.24400544166565px) scale(0.02, 0.02) translate(-177.63648986816406px, -177.24400544166565px);transform: translate(177.63648986816406px, 177.24400544166565px) scale(0.02, 0.02) translate(-177.63648986816406px, -177.24400544166565px);-webkit-animation-name: kf_el_FaqzLCVMgO_an_2Rdsb6kPN;animation-name: kf_el_FaqzLCVMgO_an_2Rdsb6kPN;-webkit-animation-timing-function: cubic-bezier(0, 0, 1, 1);animation-timing-function: cubic-bezier(0, 0, 1, 1);}</style>
<g id="el_tRJdLtijv3">
	<g id="el_FaqzLCVMgO_an_2Rdsb6kPN" data-animator-group="true" data-animator-type="2"><g id="el_FaqzLCVMgO">
		<g id="el_bDLZPZ2Fcb">
			<polygon points="177.689,352.116 84.059,352.116 &#10;&#9;&#9;&#9;&#9;46.901,318.336 46.901,34.584 82.612,2.254 177.689,2.254 272.768,2.254 308.478,34.584 308.478,318.336 271.319,352.116 &#9;&#9;&#9;" id="el_gIjWn9Fc44"/>
		</g>
		<g id="el_dJZRBFcFur">
			
				<line x1="61.856" y1="177.185" x2="294.947" y2="177.185" id="el_eeWcqJ-nFn"/>
		</g>
		<g id="el_yjTQMjSpcd">
			
				<line x1="177.689" y1="2.408" x2="177.689" y2="351.963" id="el_nRRdyTQhwg"/>
		</g>
		<g id="el_OAsTRudrsL">
			<g id="el_2UmpJW-5yP">
				<g id="el_Vj7b5o0-b5">
					
						<line x1="177.689" y1="177.186" x2="83.953" y2="352.234" id="el_H5zTLjvJZ7"/>
				</g>
				<g id="el_L90D9s_wvq">
					
						<line x1="46.901" y1="318.336" x2="177.583" y2="176.989" id="el_o8sJtbsRj6"/>
				</g>
				<g id="el_sko_hJWoGT">
					
						<line x1="46.901" y1="318.336" x2="145.3" y2="177.372" id="el_UVZeiMe75_V"/>
				</g>
				<g id="el_uABGm6-mdxT">
					<polyline points="62.3,177.105 48.682,311.502 &#10;&#9;&#9;&#9;&#9;&#9;&#9;96.87,177.276 &#9;&#9;&#9;&#9;&#9;" id="el_qC9Upp6s7We"/>
				</g>
				<g id="el_ZJpFGZtSvYO">
					
						<line x1="83.953" y1="352.234" x2="177.706" y2="254.813" id="el__wyCEb1cifo"/>
				</g>
				<g id="el_URcuIbhmh0j">
					
						<line x1="83.953" y1="352.234" x2="177.706" y2="303.353" id="el_7VEcyokWply"/>
				</g>
				<g id="el_ModZeemMxO0">
					
						<line x1="83.953" y1="352.234" x2="177.689" y2="338.154" id="el_8-hvW_rTYTV"/>
				</g>
			</g>
			<g id="el_V8-atAytMxx">
				<g id="el_ikv9zRbcEGL">
					
						<line x1="177.689" y1="177.186" x2="82.612" y2="2.254" id="el_yb3KTkocbcF"/>
				</g>
				<g id="el_Ui1drl6zVh4">
					
						<line x1="46.795" y1="34.703" x2="177.583" y2="176.989" id="el_nveD_PLzWYg"/>
				</g>
				<g id="el_c3jIxBE6EJe">
					
						<line x1="46.795" y1="34.703" x2="145.3" y2="176.989" id="el_7tGhcWAsCkV"/>
				</g>
				<g id="el__B-jBGvm8kd">
					<polyline points="62.874,179.604 48.635,42.894 &#10;&#9;&#9;&#9;&#9;&#9;&#9;96.87,177.086 &#9;&#9;&#9;&#9;&#9;" id="el_mL7iTaVVr9a"/>
				</g>
				<g id="el_P1HD_0YwvRW">
					
						<line x1="82.612" y1="2.254" x2="177.678" y2="99.241" id="el_7OkRUkHAvhM"/>
				</g>
				<g id="el_Q1kCcUBs6us">
					
						<line x1="82.612" y1="2.254" x2="177.706" y2="50.748" id="el_gFOAHEu4Ib0"/>
				</g>
				<g id="el_-jx6Ok-haUa">
					
						<line x1="82.505" y1="2.373" x2="177.706" y2="16.271" id="el_KwuQddHfMva"/>
				</g>
			</g>
		</g>
		<g id="el_IYFCeBQbTLY">
			<g id="el_l3kL6GtpUCw">
				<g id="el_Hu95Od4IvDx">
					
						<line x1="177.689" y1="177.186" x2="271.213" y2="352.234" id="el_dQ_Lhn_ojWg"/>
				</g>
				<g id="el_b9WkFIhuXhF">
					
						<line x1="308.388" y1="318.199" x2="177.689" y2="177.186" id="el_ayF5JHc_rcf"/>
				</g>
				<g id="el_i1TBJZBUx03">
					
						<line x1="308.478" y1="318.336" x2="211.089" y2="177.372" id="el_ECpqO82KE3G"/>
				</g>
				<g id="el_ghk3pILMtnr">
					<polyline points="294.504,177.185 &#10;&#9;&#9;&#9;&#9;&#9;&#9;306.584,311.852 259.518,177.276 &#9;&#9;&#9;&#9;&#9;" id="el_W7IwFAaoTbH"/>
				</g>
				<g id="el_UxmzcSJricG">
					
						<line x1="271.319" y1="352.116" x2="177.706" y2="254.813" id="el_qIdEnYcxwSf"/>
				</g>
				<g id="el_tlIsFmTLiTm">
					
						<line x1="271.213" y1="352.234" x2="177.706" y2="303.353" id="el_c7JaBeFNiLg"/>
				</g>
				<g id="el_sZ5bdKcZcc-">
					
						<line x1="271.213" y1="352.234" x2="177.776" y2="338.154" id="el_KtB0obcKV4n"/>
				</g>
			</g>
			<g id="el_DbMH0fbmYVJ">
				<g id="el_ctV9_bs3ugr">
					
						<line x1="177.689" y1="177.186" x2="272.047" y2="2.795" id="el_deRbu8CqBdv"/>
				</g>
				<g id="el_sB-GrsVMid_">
					
						<line x1="308.347" y1="34.869" x2="177.689" y2="177.186" id="el_lR_H8dtaSSM"/>
				</g>
				<g id="el_aZLJUggE0U2">
					
						<line x1="308.347" y1="34.869" x2="211.089" y2="176.989" id="el_lDosgxww8uc"/>
				</g>
				<g id="el_B9QaVFkcq0z">
					<polyline points="294.504,177.185 306.667,43 &#10;&#9;&#9;&#9;&#9;&#9;&#9;259.518,177.086 &#9;&#9;&#9;&#9;&#9;" id="el_5DlTM4CGTSL"/>
				</g>
				<g id="el_nDE2MIGdd3C">
					
						<line x1="272.487" y1="2.567" x2="177.678" y2="99.241" id="el_jbQMjFHzZoY"/>
				</g>
				<g id="el_MJMZ32Nevi0">
					
						<line x1="272.487" y1="2.567" x2="177.706" y2="50.748" id="el_BxK-LDAa-uc"/>
				</g>
				<g id="el_Mu_Rhuxq9uP">
					
						<line x1="272.487" y1="2.567" x2="177.706" y2="16.271" id="el_t95KbYYjQzr"/>
				</g>
			</g>
		</g>
	</g></g>
	<g id="el_y5IyEWtclbF">
		<g id="el_fYkKYpEVYiU">
			<polygon points="177.583,352.234 83.953,352.234 &#10;&#9;&#9;&#9;&#9;46.795,318.454 46.795,34.703 82.505,2.373 177.583,2.373 272.661,2.373 308.37,34.703 308.37,318.454 271.213,352.234 &#9;&#9;&#9;" id="el_XkNi9VfMdCa"/>
		</g>
		<g id="el_uPXkhq7mdnk">
			<polyline points="82.615,2.242 112.431,25.341 &#10;&#9;&#9;&#9;&#9;177.678,62.262 &#9;&#9;&#9;" id="el_cV0aH0NnTTy"/>
		</g>
		<g id="el_EW1w0n1zSuJ">
			<polyline points="47.008,34.81 76.848,58.306 &#10;&#9;&#9;&#9;&#9;119.912,63.491 178.211,62.185 &#9;&#9;&#9;" id="el_8C16T-D_1C3"/>
		</g>
		<g id="el_6YdsS8b8N2P">
			<polyline points="112.294,25.444 119.84,63.931 &#10;&#9;&#9;&#9;&#9;104.32,179.275 77.43,297.736 &#9;&#9;&#9;" id="el_yCCD3Judk9M"/>
		</g>
		<g id="el_eQ98izSKV1j">
			<polyline points="76.867,58.638 104.32,176.591 &#10;&#9;&#9;&#9;&#9;120.631,291.021 110.733,329.039 83.883,352.242 &#9;&#9;&#9;" id="el_4x0ysHbgdBI"/>
		</g>
		<g id="el_Y7YHw7uh2Iv">
			<polygon points="77.43,297.736 76.616,58.167 &#10;&#9;&#9;&#9;&#9;112.294,25.444 243.442,25.735 278.795,58.83 278.186,297.991 241.331,329.039 110.733,329.039 &#9;&#9;&#9;" id="el_knAhnXt0-9b"/>
		</g>
		<g id="el_vatrTa5hRej">
			
				<line x1="110.733" y1="329.039" x2="177.698" y2="291.29" id="el_UyCCmuQxNnT"/>
		</g>
		<g id="el_HsODgriMtJR">
			<polyline points="47.034,318.359 77.259,297.589 &#10;&#9;&#9;&#9;&#9;120.177,291.019 178.211,291.337 &#9;&#9;&#9;" id="el_tdSaE_EUat1"/>
		</g>
		<g id="el_joLuhdwQfbO">
			<g id="el_cJyWBPHx2KT">
				<polyline points="272.6,2.351 243.99,25.341 &#10;&#9;&#9;&#9;&#9;&#9;177.678,62.196 &#9;&#9;&#9;&#9;" id="el_yTaZjjnF6_A"/>
			</g>
			<g id="el_w6g97NeGPFN">
				<polyline points="308.347,34.869 278.705,59.002 &#10;&#9;&#9;&#9;&#9;&#9;236.32,63.42 178.211,62.185 &#9;&#9;&#9;&#9;" id="el_SewPUSTITrQ"/>
			</g>
			<g id="el_yey5lnSORuS">
				<polyline points="243.474,25.568 236.581,63.931 &#10;&#9;&#9;&#9;&#9;&#9;252.102,179.275 278.186,297.991 &#9;&#9;&#9;&#9;" id="el_Ih5MAfEiT6I"/>
			</g>
			<g id="el_CdecDtUVCY0">
				<polyline points="278.705,59.002 252.102,176.591 &#10;&#9;&#9;&#9;&#9;&#9;236.046,291.399 241.502,328.953 271.214,352.212 &#9;&#9;&#9;&#9;" id="el_P1XG69IofSb"/>
			</g>
			<g id="el_gvxBAbWBOZC">
				
					<line x1="241.477" y1="328.769" x2="177.759" y2="291.284" id="el_U23brPpc-m6"/>
			</g>
			<g id="el_utPH5Omkg3-">
				<polyline points="308.231,318.245 &#10;&#9;&#9;&#9;&#9;&#9;278.186,297.991 236.32,290.735 178.211,291.337 &#9;&#9;&#9;&#9;" id="el_CFPfLRcvvTz"/>
			</g>
		</g>
	</g>
</g>
</svg>